<?xml version="1.0" encoding="utf-8" ?>
<svg baseProfile="tiny" height="100%" version="1.2" width="100%" xmlns="http://www.w3.org/2000/svg" xmlns:ev="http://www.w3.org/2001/xml-events" xmlns:xlink="http://www.w3.org/1999/xlink"><defs /><line stroke="black" x1="1.0" x2="0.998" y1="0.0" y2="0.0634" /><line stroke="black" x1="0.998" x2="0.992" y1="0.0634" y2="0.1266" /><line stroke="black" x1="0.992" x2="0.9819" y1="0.1266" y2="0.1893" /><line stroke="black" x1="0.9819" x2="0.9679" y1="0.1893" y2="0.2511" /><line stroke="black" x1="0.9679" x2="0.9501" y1="0.2511" y2="0.312" /><line stroke="black" x1="0.9501" x2="0.9284" y1="0.312" y2="0.3717" /><line stroke="black" x1="0.9284" x2="0.9029" y1="0.3717" y2="0.4298" /><line stroke="black" x1="0.9029" x2="0.8738" y1="0.4298" y2="0.4862" /><line stroke="black" x1="0.8738" x2="0.8413" y1="0.4862" y2="0.5406" /><line stroke="black" x1="0.8413" x2="0.8053" y1="0.5406" y2="0.5929" /><line stroke="black" x1="0.8053" x2="0.766" y1="0.5929" y2="0.6428" /><line stroke="black" x1="0.766" x2="0.7237" y1="0.6428" y2="0.6901" /><line stroke="black" x1="0.7237" x2="0.6785" y1="0.6901" y2="0.7346" /><line stroke="black" x1="0.6785" x2="0.6306" y1="0.7346" y2="0.7761" /><line stroke="black" x1="0.6306" x2="0.5801" y1="0.7761" y2="0.8146" /><line stroke="black" x1="0.5801" x2="0.5272" y1="0.8146" y2="0.8497" /><line stroke="black" x1="0.5272" x2="0.4723" y1="0.8497" y2="0.8815" /><line stroke="black" x1="0.4723" x2="0.4154" y1="0.8815" y2="0.9096" /><line stroke="black" x1="0.4154" x2="0.3569" y1="0.9096" y2="0.9341" /><line stroke="black" x1="0.3569" x2="0.2969" y1="0.9341" y2="0.9549" /><line stroke="black" x1="0.2969" x2="0.2358" y1="0.9549" y2="0.9718" /><line stroke="black" x1="0.2358" x2="0.1736" y1="0.9718" y2="0.9848" /><line stroke="black" x1="0.1736" x2="0.1108" y1="0.9848" y2="0.9938" /><line stroke="black" x1="0.1108" x2="0.0476" y1="0.9938" y2="0.9989" /><line stroke="black" x1="0.0476" x2="-0.0159" y1="0.9989" y2="0.9999" /><line stroke="black" x1="-0.0159" x2="-0.0792" y1="0.9999" y2="0.9969" /><line stroke="black" x1="-0.0792" x2="-0.1423" y1="0.9969" y2="0.9898" /><line stroke="black" x1="-0.1423" x2="-0.2048" y1="0.9898" y2="0.9788" /><line stroke="black" x1="-0.2048" x2="-0.2665" y1="0.9788" y2="0.9638" /><line stroke="black" x1="-0.2665" x2="-0.3271" y1="0.9638" y2="0.945" /><line stroke="black" x1="-0.3271" x2="-0.3863" y1="0.945" y2="0.9224" /><line stroke="black" x1="-0.3863" x2="-0.4441" y1="0.9224" y2="0.896" /><line stroke="black" x1="-0.4441" x2="-0.5" y1="0.896" y2="0.866" /><line stroke="black" x1="-0.5" x2="-0.5539" y1="0.866" y2="0.8326" /><line stroke="black" x1="-0.5539" x2="-0.6056" y1="0.8326" y2="0.7958" /><line stroke="black" x1="-0.6056" x2="-0.6549" y1="0.7958" y2="0.7557" /><line stroke="black" x1="-0.6549" x2="-0.7015" y1="0.7557" y2="0.7127" /><line stroke="black" x1="-0.7015" x2="-0.7453" y1="0.7127" y2="0.6668" /><line stroke="black" x1="-0.7453" x2="-0.7861" y1="0.6668" y2="0.6182" /><line stroke="black" x1="-0.7861" x2="-0.8237" y1="0.6182" y2="0.5671" /><line stroke="black" x1="-0.8237" x2="-0.858" y1="0.5671" y2="0.5137" /><line stroke="black" x1="-0.858" x2="-0.8888" y1="0.5137" y2="0.4582" /><line stroke="black" x1="-0.8888" x2="-0.9161" y1="0.4582" y2="0.4009" /><line stroke="black" x1="-0.9161" x2="-0.9397" y1="0.4009" y2="0.342" /><line stroke="black" x1="-0.9397" x2="-0.9595" y1="0.342" y2="0.2817" /><line stroke="black" x1="-0.9595" x2="-0.9754" y1="0.2817" y2="0.2203" /><line stroke="black" x1="-0.9754" x2="-0.9874" y1="0.2203" y2="0.158" /><line stroke="black" x1="-0.9874" x2="-0.9955" y1="0.158" y2="0.0951" /><line stroke="black" x1="-0.9955" x2="-0.9995" y1="0.0951" y2="0.0317" /><line stroke="black" x1="-0.9995" x2="-0.9995" y1="0.0317" y2="-0.0317" /><line stroke="black" x1="-0.9995" x2="-0.9955" y1="-0.0317" y2="-0.0951" /><line stroke="black" x1="-0.9955" x2="-0.9874" y1="-0.0951" y2="-0.158" /><line stroke="black" x1="-0.9874" x2="-0.9754" y1="-0.158" y2="-0.2203" /><line stroke="black" x1="-0.9754" x2="-0.9595" y1="-0.2203" y2="-0.2817" /><line stroke="black" x1="-0.9595" x2="-0.9397" y1="-0.2817" y2="-0.342" /><line stroke="black" x1="-0.9397" x2="-0.9161" y1="-0.342" y2="-0.4009" /><line stroke="black" x1="-0.9161" x2="-0.8888" y1="-0.4009" y2="-0.4582" /><line stroke="black" x1="-0.8888" x2="-0.858" y1="-0.4582" y2="-0.5137" /><line stroke="black" x1="-0.858" x2="-0.8237" y1="-0.5137" y2="-0.5671" /><line stroke="black" x1="-0.8237" x2="-0.7861" y1="-0.5671" y2="-0.6182" /><line stroke="black" x1="-0.7861" x2="-0.7453" y1="-0.6182" y2="-0.6668" /><line stroke="black" x1="-0.7453" x2="-0.7015" y1="-0.6668" y2="-0.7127" /><line stroke="black" x1="-0.7015" x2="-0.6549" y1="-0.7127" y2="-0.7557" /><line stroke="black" x1="-0.6549" x2="-0.6056" y1="-0.7557" y2="-0.7958" /><line stroke="black" x1="-0.6056" x2="-0.5539" y1="-0.7958" y2="-0.8326" /><line stroke="black" x1="-0.5539" x2="-0.5" y1="-0.8326" y2="-0.866" /><line stroke="black" x1="-0.5" x2="-0.4441" y1="-0.866" y2="-0.896" /><line stroke="black" x1="-0.4441" x2="-0.3863" y1="-0.896" y2="-0.9224" /><line stroke="black" x1="-0.3863" x2="-0.3271" y1="-0.9224" y2="-0.945" /><line stroke="black" x1="-0.3271" x2="-0.2665" y1="-0.945" y2="-0.9638" /><line stroke="black" x1="-0.2665" x2="-0.2048" y1="-0.9638" y2="-0.9788" /><line stroke="black" x1="-0.2048" x2="-0.1423" y1="-0.9788" y2="-0.9898" /><line stroke="black" x1="-0.1423" x2="-0.0792" y1="-0.9898" y2="-0.9969" /><line stroke="black" x1="-0.0792" x2="-0.0159" y1="-0.9969" y2="-0.9999" /><line stroke="black" x1="-0.0159" x2="0.0476" y1="-0.9999" y2="-0.9989" /><line stroke="black" x1="0.0476" x2="0.1108" y1="-0.9989" y2="-0.9938" /><line stroke="black" x1="0.1108" x2="0.1736" y1="-0.9938" y2="-0.9848" /><line stroke="black" x1="0.1736" x2="0.2358" y1="-0.9848" y2="-0.9718" /><line stroke="black" x1="0.2358" x2="0.2969" y1="-0.9718" y2="-0.9549" /><line stroke="black" x1="0.2969" x2="0.3569" y1="-0.9549" y2="-0.9341" /><line stroke="black" x1="0.3569" x2="0.4154" y1="-0.9341" y2="-0.9096" /><line stroke="black" x1="0.4154" x2="0.4723" y1="-0.9096" y2="-0.8815" /><line stroke="black" x1="0.4723" x2="0.5272" y1="-0.8815" y2="-0.8497" /><line stroke="black" x1="0.5272" x2="0.5801" y1="-0.8497" y2="-0.8146" /><line stroke="black" x1="0.5801" x2="0.6306" y1="-0.8146" y2="-0.7761" /><line stroke="black" x1="0.6306" x2="0.6785" y1="-0.7761" y2="-0.7346" /><line stroke="black" x1="0.6785" x2="0.7237" y1="-0.7346" y2="-0.6901" /><line stroke="black" x1="0.7237" x2="0.766" y1="-0.6901" y2="-0.6428" /><line stroke="black" x1="0.766" x2="0.8053" y1="-0.6428" y2="-0.5929" /><line stroke="black" x1="0.8053" x2="0.8413" y1="-0.5929" y2="-0.5406" /><line stroke="black" x1="0.8413" x2="0.8738" y1="-0.5406" y2="-0.4862" /><line stroke="black" x1="0.8738" x2="0.9029" y1="-0.4862" y2="-0.4298" /><line stroke="black" x1="0.9029" x2="0.9284" y1="-0.4298" y2="-0.3717" /><line stroke="black" x1="0.9284" x2="0.9501" y1="-0.3717" y2="-0.312" /><line stroke="black" x1="0.9501" x2="0.9679" y1="-0.312" y2="-0.2511" /><line stroke="black" x1="0.9679" x2="0.9819" y1="-0.2511" y2="-0.1893" /><line stroke="black" x1="0.9819" x2="0.992" y1="-0.1893" y2="-0.1266" /><line stroke="black" x1="0.992" x2="0.998" y1="-0.1266" y2="-0.0634" /><line stroke="black" x1="0.998" x2="1.0" y1="-0.0634" y2="-0.0" /><line stroke="black" x1="1.0" x2="1.0" y1="-0.0" y2="0.0" /><line stroke="black" x1="2.0" x2="1.996" y1="0.0" y2="0.1268" /><line stroke="black" x1="1.996" x2="1.9839" y1="0.1268" y2="0.2532" /><line stroke="black" x1="1.9839" x2="1.9639" y1="0.2532" y2="0.3785" /><line stroke="black" x1="1.9639" x2="1.9359" y1="0.3785" y2="0.5023" /><line stroke="black" x1="1.9359" x2="1.9001" y1="0.5023" y2="0.6241" /><line stroke="black" x1="1.9001" x2="1.8567" y1="0.6241" y2="0.7433" /><line stroke="black" x1="1.8567" x2="1.8059" y1="0.7433" y2="0.8596" /><line stroke="black" x1="1.8059" x2="1.7477" y1="0.8596" y2="0.9724" /><line stroke="black" x1="1.7477" x2="1.6825" y1="0.9724" y2="1.0813" /><line stroke="black" x1="1.6825" x2="1.6105" y1="1.0813" y2="1.1858" /><line stroke="black" x1="1.6105" x2="1.5321" y1="1.1858" y2="1.2856" /><line stroke="black" x1="1.5321" x2="1.4475" y1="1.2856" y2="1.3802" /><line stroke="black" x1="1.4475" x2="1.357" y1="1.3802" y2="1.4692" /><line stroke="black" x1="1.357" x2="1.2611" y1="1.4692" y2="1.5523" /><line stroke="black" x1="1.2611" x2="1.1601" y1="1.5523" y2="1.6292" /><line stroke="black" x1="1.1601" x2="1.0545" y1="1.6292" y2="1.6995" /><line stroke="black" x1="1.0545" x2="0.9445" y1="1.6995" y2="1.7629" /><line stroke="black" x1="0.9445" x2="0.8308" y1="1.7629" y2="1.8193" /><line stroke="black" x1="0.8308" x2="0.7138" y1="1.8193" y2="1.8683" /><line stroke="black" x1="0.7138" x2="0.5938" y1="1.8683" y2="1.9098" /><line stroke="black" x1="0.5938" x2="0.4715" y1="1.9098" y2="1.9436" /><line stroke="black" x1="0.4715" x2="0.3473" y1="1.9436" y2="1.9696" /><line stroke="black" x1="0.3473" x2="0.2217" y1="1.9696" y2="1.9877" /><line stroke="black" x1="0.2217" x2="0.0952" y1="1.9877" y2="1.9977" /><line stroke="black" x1="0.0952" x2="-0.0317" y1="1.9977" y2="1.9997" /><line stroke="black" x1="-0.0317" x2="-0.1585" y1="1.9997" y2="1.9937" /><line stroke="black" x1="-0.1585" x2="-0.2846" y1="1.9937" y2="1.9796" /><line stroke="black" x1="-0.2846" x2="-0.4096" y1="1.9796" y2="1.9576" /><line stroke="black" x1="-0.4096" x2="-0.5329" y1="1.9576" y2="1.9277" /><line stroke="black" x1="-0.5329" x2="-0.6541" y1="1.9277" y2="1.89" /><line stroke="black" x1="-0.6541" x2="-0.7727" y1="1.89" y2="1.8447" /><line stroke="black" x1="-0.7727" x2="-0.8881" y1="1.8447" y2="1.792" /><line stroke="black" x1="-0.8881" x2="-1.0" y1="1.792" y2="1.7321" /><line stroke="black" x1="-1.0" x2="-1.1078" y1="1.7321" y2="1.6651" /><line stroke="black" x1="-1.1078" x2="-1.2112" y1="1.6651" y2="1.5915" /><line stroke="black" x1="-1.2112" x2="-1.3097" y1="1.5915" y2="1.5115" /><line stroke="black" x1="-1.3097" x2="-1.4029" y1="1.5115" y2="1.4254" /><line stroke="black" x1="-1.4029" x2="-1.4905" y1="1.4254" y2="1.3335" /><line stroke="black" x1="-1.4905" x2="-1.5721" y1="1.3335" y2="1.2363" /><line stroke="black" x1="-1.5721" x2="-1.6474" y1="1.2363" y2="1.1341" /><line stroke="black" x1="-1.6474" x2="-1.716" y1="1.1341" y2="1.0274" /><line stroke="black" x1="-1.716" x2="-1.7777" y1="1.0274" y2="0.9165" /><line stroke="black" x1="-1.7777" x2="-1.8322" y1="0.9165" y2="0.8019" /><line stroke="black" x1="-1.8322" x2="-1.8794" y1="0.8019" y2="0.684" /><line stroke="black" x1="-1.8794" x2="-1.919" y1="0.684" y2="0.5635" /><line stroke="black" x1="-1.919" x2="-1.9509" y1="0.5635" y2="0.4406" /><line stroke="black" x1="-1.9509" x2="-1.9749" y1="0.4406" y2="0.316" /><line stroke="black" x1="-1.9749" x2="-1.9909" y1="0.316" y2="0.1901" /><line stroke="black" x1="-1.9909" x2="-1.999" y1="0.1901" y2="0.0635" /><line stroke="black" x1="-1.999" x2="-1.999" y1="0.0635" y2="-0.0635" /><line stroke="black" x1="-1.999" x2="-1.9909" y1="-0.0635" y2="-0.1901" /><line stroke="black" x1="-1.9909" x2="-1.9749" y1="-0.1901" y2="-0.316" /><line stroke="black" x1="-1.9749" x2="-1.9509" y1="-0.316" y2="-0.4406" /><line stroke="black" x1="-1.9509" x2="-1.919" y1="-0.4406" y2="-0.5635" /><line stroke="black" x1="-1.919" x2="-1.8794" y1="-0.5635" y2="-0.684" /><line stroke="black" x1="-1.8794" x2="-1.8322" y1="-0.684" y2="-0.8019" /><line stroke="black" x1="-1.8322" x2="-1.7777" y1="-0.8019" y2="-0.9165" /><line stroke="black" x1="-1.7777" x2="-1.716" y1="-0.9165" y2="-1.0274" /><line stroke="black" x1="-1.716" x2="-1.6474" y1="-1.0274" y2="-1.1341" /><line stroke="black" x1="-1.6474" x2="-1.5721" y1="-1.1341" y2="-1.2363" /><line stroke="black" x1="-1.5721" x2="-1.4905" y1="-1.2363" y2="-1.3335" /><line stroke="black" x1="-1.4905" x2="-1.4029" y1="-1.3335" y2="-1.4254" /><line stroke="black" x1="-1.4029" x2="-1.3097" y1="-1.4254" y2="-1.5115" /><line stroke="black" x1="-1.3097" x2="-1.2112" y1="-1.5115" y2="-1.5915" /><line stroke="black" x1="-1.2112" x2="-1.1078" y1="-1.5915" y2="-1.6651" /><line stroke="black" x1="-1.1078" x2="-1.0" y1="-1.6651" y2="-1.7321" /><line stroke="black" x1="-1.0" x2="-0.8881" y1="-1.7321" y2="-1.792" /><line stroke="black" x1="-0.8881" x2="-0.7727" y1="-1.792" y2="-1.8447" /><line stroke="black" x1="-0.7727" x2="-0.6541" y1="-1.8447" y2="-1.89" /><line stroke="black" x1="-0.6541" x2="-0.5329" y1="-1.89" y2="-1.9277" /><line stroke="black" x1="-0.5329" x2="-0.4096" y1="-1.9277" y2="-1.9576" /><line stroke="black" x1="-0.4096" x2="-0.2846" y1="-1.9576" y2="-1.9796" /><line stroke="black" x1="-0.2846" x2="-0.1585" y1="-1.9796" y2="-1.9937" /><line stroke="black" x1="-0.1585" x2="-0.0317" y1="-1.9937" y2="-1.9997" /><line stroke="black" x1="-0.0317" x2="0.0952" y1="-1.9997" y2="-1.9977" /><line stroke="black" x1="0.0952" x2="0.2217" y1="-1.9977" y2="-1.9877" /><line stroke="black" x1="0.2217" x2="0.3473" y1="-1.9877" y2="-1.9696" /><line stroke="black" x1="0.3473" x2="0.4715" y1="-1.9696" y2="-1.9436" /><line stroke="black" x1="0.4715" x2="0.5938" y1="-1.9436" y2="-1.9098" /><line stroke="black" x1="0.5938" x2="0.7138" y1="-1.9098" y2="-1.8683" /><line stroke="black" x1="0.7138" x2="0.8308" y1="-1.8683" y2="-1.8193" /><line stroke="black" x1="0.8308" x2="0.9445" y1="-1.8193" y2="-1.7629" /><line stroke="black" x1="0.9445" x2="1.0545" y1="-1.7629" y2="-1.6995" /><line stroke="black" x1="1.0545" x2="1.1601" y1="-1.6995" y2="-1.6292" /><line stroke="black" x1="1.1601" x2="1.2611" y1="-1.6292" y2="-1.5523" /><line stroke="black" x1="1.2611" x2="1.357" y1="-1.5523" y2="-1.4692" /><line stroke="black" x1="1.357" x2="1.4475" y1="-1.4692" y2="-1.3802" /><line stroke="black" x1="1.4475" x2="1.5321" y1="-1.3802" y2="-1.2856" /><line stroke="black" x1="1.5321" x2="1.6105" y1="-1.2856" y2="-1.1858" /><line stroke="black" x1="1.6105" x2="1.6825" y1="-1.1858" y2="-1.0813" /><line stroke="black" x1="1.6825" x2="1.7477" y1="-1.0813" y2="-0.9724" /><line stroke="black" x1="1.7477" x2="1.8059" y1="-0.9724" y2="-0.8596" /><line stroke="black" x1="1.8059" x2="1.8567" y1="-0.8596" y2="-0.7433" /><line stroke="black" x1="1.8567" x2="1.9001" y1="-0.7433" y2="-0.6241" /><line stroke="black" x1="1.9001" x2="1.9359" y1="-0.6241" y2="-0.5023" /><line stroke="black" x1="1.9359" x2="1.9639" y1="-0.5023" y2="-0.3785" /><line stroke="black" x1="1.9639" x2="1.9839" y1="-0.3785" y2="-0.2532" /><line stroke="black" x1="1.9839" x2="1.996" y1="-0.2532" y2="-0.1268" /><line stroke="black" x1="1.996" x2="2.0" y1="-0.1268" y2="-0.0" /><line stroke="black" x1="2.0" x2="2.0" y1="-0.0" y2="0.0" /><line stroke="black" x1="3.0" x2="2.994" y1="0.0" y2="0.1903" /><line stroke="black" x1="2.994" x2="2.9759" y1="0.1903" y2="0.3798" /><line stroke="black" x1="2.9759" x2="2.9458" y1="0.3798" y2="0.5678" /><line stroke="black" x1="2.9458" x2="2.9038" y1="0.5678" y2="0.7534" /><line stroke="black" x1="2.9038" x2="2.8502" y1="0.7534" y2="0.9361" /><line stroke="black" x1="2.8502" x2="2.7851" y1="0.9361" y2="1.115" /><line stroke="black" x1="2.7851" x2="2.7088" y1="1.115" y2="1.2894" /><line stroke="black" x1="2.7088" x2="2.6215" y1="1.2894" y2="1.4586" /><line stroke="black" x1="2.6215" x2="2.5238" y1="1.4586" y2="1.6219" /><line stroke="black" x1="2.5238" x2="2.4158" y1="1.6219" y2="1.7787" /><line stroke="black" x1="2.4158" x2="2.2981" y1="1.7787" y2="1.9284" /><line stroke="black" x1="2.2981" x2="2.1712" y1="1.9284" y2="2.0702" /><line stroke="black" x1="2.1712" x2="2.0355" y1="2.0702" y2="2.2038" /><line stroke="black" x1="2.0355" x2="1.8917" y1="2.2038" y2="2.3284" /><line stroke="black" x1="1.8917" x2="1.7402" y1="2.3284" y2="2.4437" /><line stroke="black" x1="1.7402" x2="1.5817" y1="2.4437" y2="2.5492" /><line stroke="black" x1="1.5817" x2="1.4168" y1="2.5492" y2="2.6444" /><line stroke="black" x1="1.4168" x2="1.2462" y1="2.6444" y2="2.7289" /><line stroke="black" x1="1.2462" x2="1.0707" y1="2.7289" y2="2.8024" /><line stroke="black" x1="1.0707" x2="0.8908" y1="2.8024" y2="2.8647" /><line stroke="black" x1="0.8908" x2="0.7073" y1="2.8647" y2="2.9154" /><line stroke="black" x1="0.7073" x2="0.5209" y1="2.9154" y2="2.9544" /><line stroke="black" x1="0.5209" x2="0.3325" y1="2.9544" y2="2.9815" /><line stroke="black" x1="0.3325" x2="0.1427" y1="2.9815" y2="2.9966" /><line stroke="black" x1="0.1427" x2="-0.0476" y1="2.9966" y2="2.9996" /><line stroke="black" x1="-0.0476" x2="-0.2377" y1="2.9996" y2="2.9906" /><line stroke="black" x1="-0.2377" x2="-0.4269" y1="2.9906" y2="2.9695" /><line stroke="black" x1="-0.4269" x2="-0.6144" y1="2.9695" y2="2.9364" /><line stroke="black" x1="-0.6144" x2="-0.7994" y1="2.9364" y2="2.8915" /><line stroke="black" x1="-0.7994" x2="-0.9812" y1="2.8915" y2="2.835" /><line stroke="black" x1="-0.9812" x2="-1.159" y1="2.835" y2="2.7671" /><line stroke="black" x1="-1.159" x2="-1.3322" y1="2.7671" y2="2.688" /><line stroke="black" x1="-1.3322" x2="-1.5" y1="2.688" y2="2.5981" /><line stroke="black" x1="-1.5" x2="-1.6618" y1="2.5981" y2="2.4977" /><line stroke="black" x1="-1.6618" x2="-1.8168" y1="2.4977" y2="2.3873" /><line stroke="black" x1="-1.8168" x2="-1.9646" y1="2.3873" y2="2.2672" /><line stroke="black" x1="-1.9646" x2="-2.1044" y1="2.2672" y2="2.1381" /><line stroke="black" x1="-2.1044" x2="-2.2358" y1="2.1381" y2="2.0003" /><line stroke="black" x1="-2.2358" x2="-2.3582" y1="2.0003" y2="1.8545" /><line stroke="black" x1="-2.3582" x2="-2.471" y1="1.8545" y2="1.7012" /><line stroke="black" x1="-2.471" x2="-2.574" y1="1.7012" y2="1.541" /><line stroke="black" x1="-2.574" x2="-2.6665" y1="1.541" y2="1.3747" /><line stroke="black" x1="-2.6665" x2="-2.7483" y1="1.3747" y2="1.2028" /><line stroke="black" x1="-2.7483" x2="-2.8191" y1="1.2028" y2="1.0261" /><line stroke="black" x1="-2.8191" x2="-2.8785" y1="1.0261" y2="0.8452" /><line stroke="black" x1="-2.8785" x2="-2.9263" y1="0.8452" y2="0.6609" /><line stroke="black" x1="-2.9263" x2="-2.9623" y1="0.6609" y2="0.474" /><line stroke="black" x1="-2.9623" x2="-2.9864" y1="0.474" y2="0.2852" /><line stroke="black" x1="-2.9864" x2="-2.9985" y1="0.2852" y2="0.0952" /><line stroke="black" x1="-2.9985" x2="-2.9985" y1="0.0952" y2="-0.0952" /><line stroke="black" x1="-2.9985" x2="-2.9864" y1="-0.0952" y2="-0.2852" /><line stroke="black" x1="-2.9864" x2="-2.9623" y1="-0.2852" y2="-0.474" /><line stroke="black" x1="-2.9623" x2="-2.9263" y1="-0.474" y2="-0.6609" /><line stroke="black" x1="-2.9263" x2="-2.8785" y1="-0.6609" y2="-0.8452" /><line stroke="black" x1="-2.8785" x2="-2.8191" y1="-0.8452" y2="-1.0261" /><line stroke="black" x1="-2.8191" x2="-2.7483" y1="-1.0261" y2="-1.2028" /><line stroke="black" x1="-2.7483" x2="-2.6665" y1="-1.2028" y2="-1.3747" /><line stroke="black" x1="-2.6665" x2="-2.574" y1="-1.3747" y2="-1.541" /><line stroke="black" x1="-2.574" x2="-2.471" y1="-1.541" y2="-1.7012" /><line stroke="black" x1="-2.471" x2="-2.3582" y1="-1.7012" y2="-1.8545" /><line stroke="black" x1="-2.3582" x2="-2.2358" y1="-1.8545" y2="-2.0003" /><line stroke="black" x1="-2.2358" x2="-2.1044" y1="-2.0003" y2="-2.1381" /><line stroke="black" x1="-2.1044" x2="-1.9646" y1="-2.1381" y2="-2.2672" /><line stroke="black" x1="-1.9646" x2="-1.8168" y1="-2.2672" y2="-2.3873" /><line stroke="black" x1="-1.8168" x2="-1.6618" y1="-2.3873" y2="-2.4977" /><line stroke="black" x1="-1.6618" x2="-1.5" y1="-2.4977" y2="-2.5981" /><line stroke="black" x1="-1.5" x2="-1.3322" y1="-2.5981" y2="-2.688" /><line stroke="black" x1="-1.3322" x2="-1.159" y1="-2.688" y2="-2.7671" /><line stroke="black" x1="-1.159" x2="-0.9812" y1="-2.7671" y2="-2.835" /><line stroke="black" x1="-0.9812" x2="-0.7994" y1="-2.835" y2="-2.8915" /><line stroke="black" x1="-0.7994" x2="-0.6144" y1="-2.8915" y2="-2.9364" /><line stroke="black" x1="-0.6144" x2="-0.4269" y1="-2.9364" y2="-2.9695" /><line stroke="black" x1="-0.4269" x2="-0.2377" y1="-2.9695" y2="-2.9906" /><line stroke="black" x1="-0.2377" x2="-0.0476" y1="-2.9906" y2="-2.9996" /><line stroke="black" x1="-0.0476" x2="0.1427" y1="-2.9996" y2="-2.9966" /><line stroke="black" x1="0.1427" x2="0.3325" y1="-2.9966" y2="-2.9815" /><line stroke="black" x1="0.3325" x2="0.5209" y1="-2.9815" y2="-2.9544" /><line stroke="black" x1="0.5209" x2="0.7073" y1="-2.9544" y2="-2.9154" /><line stroke="black" x1="0.7073" x2="0.8908" y1="-2.9154" y2="-2.8647" /><line stroke="black" x1="0.8908" x2="1.0707" y1="-2.8647" y2="-2.8024" /><line stroke="black" x1="1.0707" x2="1.2462" y1="-2.8024" y2="-2.7289" /><line stroke="black" x1="1.2462" x2="1.4168" y1="-2.7289" y2="-2.6444" /><line stroke="black" x1="1.4168" x2="1.5817" y1="-2.6444" y2="-2.5492" /><line stroke="black" x1="1.5817" x2="1.7402" y1="-2.5492" y2="-2.4437" /><line stroke="black" x1="1.7402" x2="1.8917" y1="-2.4437" y2="-2.3284" /><line stroke="black" x1="1.8917" x2="2.0355" y1="-2.3284" y2="-2.2038" /><line stroke="black" x1="2.0355" x2="2.1712" y1="-2.2038" y2="-2.0702" /><line stroke="black" x1="2.1712" x2="2.2981" y1="-2.0702" y2="-1.9284" /><line stroke="black" x1="2.2981" x2="2.4158" y1="-1.9284" y2="-1.7787" /><line stroke="black" x1="2.4158" x2="2.5238" y1="-1.7787" y2="-1.6219" /><line stroke="black" x1="2.5238" x2="2.6215" y1="-1.6219" y2="-1.4586" /><line stroke="black" x1="2.6215" x2="2.7088" y1="-1.4586" y2="-1.2894" /><line stroke="black" x1="2.7088" x2="2.7851" y1="-1.2894" y2="-1.115" /><line stroke="black" x1="2.7851" x2="2.8502" y1="-1.115" y2="-0.9361" /><line stroke="black" x1="2.8502" x2="2.9038" y1="-0.9361" y2="-0.7534" /><line stroke="black" x1="2.9038" x2="2.9458" y1="-0.7534" y2="-0.5678" /><line stroke="black" x1="2.9458" x2="2.9759" y1="-0.5678" y2="-0.3798" /><line stroke="black" x1="2.9759" x2="2.994" y1="-0.3798" y2="-0.1903" /><line stroke="black" x1="2.994" x2="3.0" y1="-0.1903" y2="-0.0" /><line stroke="black" x1="3.0" x2="3.0" y1="-0.0" y2="0.0" /><line stroke="black" x1="4.0" x2="3.9919" y1="0.0" y2="0.2537" /><line stroke="black" x1="3.9919" x2="3.9678" y1="0.2537" y2="0.5064" /><line stroke="black" x1="3.9678" x2="3.9277" y1="0.5064" y2="0.757" /><line stroke="black" x1="3.9277" x2="3.8718" y1="0.757" y2="1.0046" /><line stroke="black" x1="3.8718" x2="3.8003" y1="1.0046" y2="1.2481" /><line stroke="black" x1="3.8003" x2="3.7135" y1="1.2481" y2="1.4866" /><line stroke="black" x1="3.7135" x2="3.6117" y1="1.4866" y2="1.7192" /><line stroke="black" x1="3.6117" x2="3.4954" y1="1.7192" y2="1.9448" /><line stroke="black" x1="3.4954" x2="3.365" y1="1.9448" y2="2.1626" /><line stroke="black" x1="3.365" x2="3.2211" y1="2.1626" y2="2.3716" /><line stroke="black" x1="3.2211" x2="3.0642" y1="2.3716" y2="2.5712" /><line stroke="black" x1="3.0642" x2="2.8949" y1="2.5712" y2="2.7603" /><line stroke="black" x1="2.8949" x2="2.714" y1="2.7603" y2="2.9384" /><line stroke="black" x1="2.714" x2="2.5222" y1="2.9384" y2="3.1046" /><line stroke="black" x1="2.5222" x2="2.3202" y1="3.1046" y2="3.2583" /><line stroke="black" x1="2.3202" x2="2.1089" y1="3.2583" y2="3.3989" /><line stroke="black" x1="2.1089" x2="1.8891" y1="3.3989" y2="3.5258" /><line stroke="black" x1="1.8891" x2="1.6617" y1="3.5258" y2="3.6385" /><line stroke="black" x1="1.6617" x2="1.4275" y1="3.6385" y2="3.7366" /><line stroke="black" x1="1.4275" x2="1.1877" y1="3.7366" y2="3.8196" /><line stroke="black" x1="1.1877" x2="0.943" y1="3.8196" y2="3.8872" /><line stroke="black" x1="0.943" x2="0.6946" y1="3.8872" y2="3.9392" /><line stroke="black" x1="0.6946" x2="0.4434" y1="3.9392" y2="3.9754" /><line stroke="black" x1="0.4434" x2="0.1903" y1="3.9754" y2="3.9955" /><line stroke="black" x1="0.1903" x2="-0.0635" y1="3.9955" y2="3.9995" /><line stroke="black" x1="-0.0635" x2="-0.317" y1="3.9995" y2="3.9874" /><line stroke="black" x1="-0.317" x2="-0.5693" y1="3.9874" y2="3.9593" /><line stroke="black" x1="-0.5693" x2="-0.8192" y1="3.9593" y2="3.9152" /><line stroke="black" x1="-0.8192" x2="-1.0659" y1="3.9152" y2="3.8554" /><line stroke="black" x1="-1.0659" x2="-1.3083" y1="3.8554" y2="3.78" /><line stroke="black" x1="-1.3083" x2="-1.5454" y1="3.78" y2="3.6894" /><line stroke="black" x1="-1.5454" x2="-1.7763" y1="3.6894" y2="3.584" /><line stroke="black" x1="-1.7763" x2="-2.0" y1="3.584" y2="3.4641" /><line stroke="black" x1="-2.0" x2="-2.2157" y1="3.4641" y2="3.3303" /><line stroke="black" x1="-2.2157" x2="-2.4224" y1="3.3303" y2="3.183" /><line stroke="black" x1="-2.4224" x2="-2.6194" y1="3.183" y2="3.023" /><line stroke="black" x1="-2.6194" x2="-2.8059" y1="3.023" y2="2.8508" /><line stroke="black" x1="-2.8059" x2="-2.9811" y1="2.8508" y2="2.6671" /><line stroke="black" x1="-2.9811" x2="-3.1442" y1="2.6671" y2="2.4726" /><line stroke="black" x1="-3.1442" x2="-3.2947" y1="2.4726" y2="2.2682" /><line stroke="black" x1="-3.2947" x2="-3.4319" y1="2.2682" y2="2.0547" /><line stroke="black" x1="-3.4319" x2="-3.5553" y1="2.0547" y2="1.8329" /><line stroke="black" x1="-3.5553" x2="-3.6644" y1="1.8329" y2="1.6037" /><line stroke="black" x1="-3.6644" x2="-3.7588" y1="1.6037" y2="1.3681" /><line stroke="black" x1="-3.7588" x2="-3.838" y1="1.3681" y2="1.1269" /><line stroke="black" x1="-3.838" x2="-3.9017" y1="1.1269" y2="0.8812" /><line stroke="black" x1="-3.9017" x2="-3.9498" y1="0.8812" y2="0.632" /><line stroke="black" x1="-3.9498" x2="-3.9819" y1="0.632" y2="0.3802" /><line stroke="black" x1="-3.9819" x2="-3.998" y1="0.3802" y2="0.1269" /><line stroke="black" x1="-3.998" x2="-3.998" y1="0.1269" y2="-0.1269" /><line stroke="black" x1="-3.998" x2="-3.9819" y1="-0.1269" y2="-0.3802" /><line stroke="black" x1="-3.9819" x2="-3.9498" y1="-0.3802" y2="-0.632" /><line stroke="black" x1="-3.9498" x2="-3.9017" y1="-0.632" y2="-0.8812" /><line stroke="black" x1="-3.9017" x2="-3.838" y1="-0.8812" y2="-1.1269" /><line stroke="black" x1="-3.838" x2="-3.7588" y1="-1.1269" y2="-1.3681" /><line stroke="black" x1="-3.7588" x2="-3.6644" y1="-1.3681" y2="-1.6037" /><line stroke="black" x1="-3.6644" x2="-3.5553" y1="-1.6037" y2="-1.8329" /><line stroke="black" x1="-3.5553" x2="-3.4319" y1="-1.8329" y2="-2.0547" /><line stroke="black" x1="-3.4319" x2="-3.2947" y1="-2.0547" y2="-2.2682" /><line stroke="black" x1="-3.2947" x2="-3.1442" y1="-2.2682" y2="-2.4726" /><line stroke="black" x1="-3.1442" x2="-2.9811" y1="-2.4726" y2="-2.6671" /><line stroke="black" x1="-2.9811" x2="-2.8059" y1="-2.6671" y2="-2.8508" /><line stroke="black" x1="-2.8059" x2="-2.6194" y1="-2.8508" y2="-3.023" /><line stroke="black" x1="-2.6194" x2="-2.4224" y1="-3.023" y2="-3.183" /><line stroke="black" x1="-2.4224" x2="-2.2157" y1="-3.183" y2="-3.3303" /><line stroke="black" x1="-2.2157" x2="-2.0" y1="-3.3303" y2="-3.4641" /><line stroke="black" x1="-2.0" x2="-1.7763" y1="-3.4641" y2="-3.584" /><line stroke="black" x1="-1.7763" x2="-1.5454" y1="-3.584" y2="-3.6894" /><line stroke="black" x1="-1.5454" x2="-1.3083" y1="-3.6894" y2="-3.78" /><line stroke="black" x1="-1.3083" x2="-1.0659" y1="-3.78" y2="-3.8554" /><line stroke="black" x1="-1.0659" x2="-0.8192" y1="-3.8554" y2="-3.9152" /><line stroke="black" x1="-0.8192" x2="-0.5693" y1="-3.9152" y2="-3.9593" /><line stroke="black" x1="-0.5693" x2="-0.317" y1="-3.9593" y2="-3.9874" /><line stroke="black" x1="-0.317" x2="-0.0635" y1="-3.9874" y2="-3.9995" /><line stroke="black" x1="-0.0635" x2="0.1903" y1="-3.9995" y2="-3.9955" /><line stroke="black" x1="0.1903" x2="0.4434" y1="-3.9955" y2="-3.9754" /><line stroke="black" x1="0.4434" x2="0.6946" y1="-3.9754" y2="-3.9392" /><line stroke="black" x1="0.6946" x2="0.943" y1="-3.9392" y2="-3.8872" /><line stroke="black" x1="0.943" x2="1.1877" y1="-3.8872" y2="-3.8196" /><line stroke="black" x1="1.1877" x2="1.4275" y1="-3.8196" y2="-3.7366" /><line stroke="black" x1="1.4275" x2="1.6617" y1="-3.7366" y2="-3.6385" /><line stroke="black" x1="1.6617" x2="1.8891" y1="-3.6385" y2="-3.5258" /><line stroke="black" x1="1.8891" x2="2.1089" y1="-3.5258" y2="-3.3989" /><line stroke="black" x1="2.1089" x2="2.3202" y1="-3.3989" y2="-3.2583" /><line stroke="black" x1="2.3202" x2="2.5222" y1="-3.2583" y2="-3.1046" /><line stroke="black" x1="2.5222" x2="2.714" y1="-3.1046" y2="-2.9384" /><line stroke="black" x1="2.714" x2="2.8949" y1="-2.9384" y2="-2.7603" /><line stroke="black" x1="2.8949" x2="3.0642" y1="-2.7603" y2="-2.5712" /><line stroke="black" x1="3.0642" x2="3.2211" y1="-2.5712" y2="-2.3716" /><line stroke="black" x1="3.2211" x2="3.365" y1="-2.3716" y2="-2.1626" /><line stroke="black" x1="3.365" x2="3.4954" y1="-2.1626" y2="-1.9448" /><line stroke="black" x1="3.4954" x2="3.6117" y1="-1.9448" y2="-1.7192" /><line stroke="black" x1="3.6117" x2="3.7135" y1="-1.7192" y2="-1.4866" /><line stroke="black" x1="3.7135" x2="3.8003" y1="-1.4866" y2="-1.2481" /><line stroke="black" x1="3.8003" x2="3.8718" y1="-1.2481" y2="-1.0046" /><line stroke="black" x1="3.8718" x2="3.9277" y1="-1.0046" y2="-0.757" /><line stroke="black" x1="3.9277" x2="3.9678" y1="-0.757" y2="-0.5064" /><line stroke="black" x1="3.9678" x2="3.9919" y1="-0.5064" y2="-0.2537" /><line stroke="black" x1="3.9919" x2="4.0" y1="-0.2537" y2="-0.0" /><line stroke="black" x1="4.0" x2="4.0" y1="-0.0" y2="0.0" /><line stroke="black" x1="5.0" x2="4.9899" y1="0.0" y2="0.3171" /><line stroke="black" x1="4.9899" x2="4.9598" y1="0.3171" y2="0.633" /><line stroke="black" x1="4.9598" x2="4.9096" y1="0.633" y2="0.9463" /><line stroke="black" x1="4.9096" x2="4.8397" y1="0.9463" y2="1.2557" /><line stroke="black" x1="4.8397" x2="4.7504" y1="1.2557" y2="1.5602" /><line stroke="black" x1="4.7504" x2="4.6418" y1="1.5602" y2="1.8583" /><line stroke="black" x1="4.6418" x2="4.5146" y1="1.8583" y2="2.149" /><line stroke="black" x1="4.5146" x2="4.3692" y1="2.149" y2="2.431" /><line stroke="black" x1="4.3692" x2="4.2063" y1="2.431" y2="2.7032" /><line stroke="black" x1="4.2063" x2="4.0264" y1="2.7032" y2="2.9645" /><line stroke="black" x1="4.0264" x2="3.8302" y1="2.9645" y2="3.2139" /><line stroke="black" x1="3.8302" x2="3.6187" y1="3.2139" y2="3.4504" /><line stroke="black" x1="3.6187" x2="3.3925" y1="3.4504" y2="3.673" /><line stroke="black" x1="3.3925" x2="3.1528" y1="3.673" y2="3.8807" /><line stroke="black" x1="3.1528" x2="2.9003" y1="3.8807" y2="4.0729" /><line stroke="black" x1="2.9003" x2="2.6361" y1="4.0729" y2="4.2486" /><line stroke="black" x1="2.6361" x2="2.3614" y1="4.2486" y2="4.4073" /><line stroke="black" x1="2.3614" x2="2.0771" y1="4.4073" y2="4.5482" /><line stroke="black" x1="2.0771" x2="1.7844" y1="4.5482" y2="4.6707" /><line stroke="black" x1="1.7844" x2="1.4846" y1="4.6707" y2="4.7745" /><line stroke="black" x1="1.4846" x2="1.1788" y1="4.7745" y2="4.8591" /><line stroke="black" x1="1.1788" x2="0.8682" y1="4.8591" y2="4.924" /><line stroke="black" x1="0.8682" x2="0.5542" y1="4.924" y2="4.9692" /><line stroke="black" x1="0.5542" x2="0.2379" y1="4.9692" y2="4.9943" /><line stroke="black" x1="0.2379" x2="-0.0793" y1="4.9943" y2="4.9994" /><line stroke="black" x1="-0.0793" x2="-0.3962" y1="4.9994" y2="4.9843" /><line stroke="black" x1="-0.3962" x2="-0.7116" y1="4.9843" y2="4.9491" /><line stroke="black" x1="-0.7116" x2="-1.024" y1="4.9491" y2="4.894" /><line stroke="black" x1="-1.024" x2="-1.3324" y1="4.894" y2="4.8192" /><line stroke="black" x1="-1.3324" x2="-1.6353" y1="4.8192" y2="4.725" /><line stroke="black" x1="-1.6353" x2="-1.9317" y1="4.725" y2="4.6118" /><line stroke="black" x1="-1.9317" x2="-2.2203" y1="4.6118" y2="4.48" /><line stroke="black" x1="-2.2203" x2="-2.5" y1="4.48" y2="4.3301" /><line stroke="black" x1="-2.5" x2="-2.7696" y1="4.3301" y2="4.1628" /><line stroke="black" x1="-2.7696" x2="-3.028" y1="4.1628" y2="3.9788" /><line stroke="black" x1="-3.028" x2="-3.2743" y1="3.9788" y2="3.7787" /><line stroke="black" x1="-3.2743" x2="-3.5074" y1="3.7787" y2="3.5635" /><line stroke="black" x1="-3.5074" x2="-3.7263" y1="3.5635" y2="3.3338" /><line stroke="black" x1="-3.7263" x2="-3.9303" y1="3.3338" y2="3.0908" /><line stroke="black" x1="-3.9303" x2="-4.1184" y1="3.0908" y2="2.8353" /><line stroke="black" x1="-4.1184" x2="-4.2899" y1="2.8353" y2="2.5684" /><line stroke="black" x1="-4.2899" x2="-4.4442" y1="2.5684" y2="2.2911" /><line stroke="black" x1="-4.4442" x2="-4.5805" y1="2.2911" y2="2.0047" /><line stroke="black" x1="-4.5805" x2="-4.6985" y1="2.0047" y2="1.7101" /><line stroke="black" x1="-4.6985" x2="-4.7975" y1="1.7101" y2="1.4087" /><line stroke="black" x1="-4.7975" x2="-4.8771" y1="1.4087" y2="1.1016" /><line stroke="black" x1="-4.8771" x2="-4.9372" y1="1.1016" y2="0.79" /><line stroke="black" x1="-4.9372" x2="-4.9774" y1="0.79" y2="0.4753" /><line stroke="black" x1="-4.9774" x2="-4.9975" y1="0.4753" y2="0.1586" /><line stroke="black" x1="-4.9975" x2="-4.9975" y1="0.1586" y2="-0.1586" /><line stroke="black" x1="-4.9975" x2="-4.9774" y1="-0.1586" y2="-0.4753" /><line stroke="black" x1="-4.9774" x2="-4.9372" y1="-0.4753" y2="-0.79" /><line stroke="black" x1="-4.9372" x2="-4.8771" y1="-0.79" y2="-1.1016" /><line stroke="black" x1="-4.8771" x2="-4.7975" y1="-1.1016" y2="-1.4087" /><line stroke="black" x1="-4.7975" x2="-4.6985" y1="-1.4087" y2="-1.7101" /><line stroke="black" x1="-4.6985" x2="-4.5805" y1="-1.7101" y2="-2.0047" /><line stroke="black" x1="-4.5805" x2="-4.4442" y1="-2.0047" y2="-2.2911" /><line stroke="black" x1="-4.4442" x2="-4.2899" y1="-2.2911" y2="-2.5684" /><line stroke="black" x1="-4.2899" x2="-4.1184" y1="-2.5684" y2="-2.8353" /><line stroke="black" x1="-4.1184" x2="-3.9303" y1="-2.8353" y2="-3.0908" /><line stroke="black" x1="-3.9303" x2="-3.7263" y1="-3.0908" y2="-3.3338" /><line stroke="black" x1="-3.7263" x2="-3.5074" y1="-3.3338" y2="-3.5635" /><line stroke="black" x1="-3.5074" x2="-3.2743" y1="-3.5635" y2="-3.7787" /><line stroke="black" x1="-3.2743" x2="-3.028" y1="-3.7787" y2="-3.9788" /><line stroke="black" x1="-3.028" x2="-2.7696" y1="-3.9788" y2="-4.1628" /><line stroke="black" x1="-2.7696" x2="-2.5" y1="-4.1628" y2="-4.3301" /><line stroke="black" x1="-2.5" x2="-2.2203" y1="-4.3301" y2="-4.48" /><line stroke="black" x1="-2.2203" x2="-1.9317" y1="-4.48" y2="-4.6118" /><line stroke="black" x1="-1.9317" x2="-1.6353" y1="-4.6118" y2="-4.725" /><line stroke="black" x1="-1.6353" x2="-1.3324" y1="-4.725" y2="-4.8192" /><line stroke="black" x1="-1.3324" x2="-1.024" y1="-4.8192" y2="-4.894" /><line stroke="black" x1="-1.024" x2="-0.7116" y1="-4.894" y2="-4.9491" /><line stroke="black" x1="-0.7116" x2="-0.3962" y1="-4.9491" y2="-4.9843" /><line stroke="black" x1="-0.3962" x2="-0.0793" y1="-4.9843" y2="-4.9994" /><line stroke="black" x1="-0.0793" x2="0.2379" y1="-4.9994" y2="-4.9943" /><line stroke="black" x1="0.2379" x2="0.5542" y1="-4.9943" y2="-4.9692" /><line stroke="black" x1="0.5542" x2="0.8682" y1="-4.9692" y2="-4.924" /><line stroke="black" x1="0.8682" x2="1.1788" y1="-4.924" y2="-4.8591" /><line stroke="black" x1="1.1788" x2="1.4846" y1="-4.8591" y2="-4.7745" /><line stroke="black" x1="1.4846" x2="1.7844" y1="-4.7745" y2="-4.6707" /><line stroke="black" x1="1.7844" x2="2.0771" y1="-4.6707" y2="-4.5482" /><line stroke="black" x1="2.0771" x2="2.3614" y1="-4.5482" y2="-4.4073" /><line stroke="black" x1="2.3614" x2="2.6361" y1="-4.4073" y2="-4.2486" /><line stroke="black" x1="2.6361" x2="2.9003" y1="-4.2486" y2="-4.0729" /><line stroke="black" x1="2.9003" x2="3.1528" y1="-4.0729" y2="-3.8807" /><line stroke="black" x1="3.1528" x2="3.3925" y1="-3.8807" y2="-3.673" /><line stroke="black" x1="3.3925" x2="3.6187" y1="-3.673" y2="-3.4504" /><line stroke="black" x1="3.6187" x2="3.8302" y1="-3.4504" y2="-3.2139" /><line stroke="black" x1="3.8302" x2="4.0264" y1="-3.2139" y2="-2.9645" /><line stroke="black" x1="4.0264" x2="4.2063" y1="-2.9645" y2="-2.7032" /><line stroke="black" x1="4.2063" x2="4.3692" y1="-2.7032" y2="-2.431" /><line stroke="black" x1="4.3692" x2="4.5146" y1="-2.431" y2="-2.149" /><line stroke="black" x1="4.5146" x2="4.6418" y1="-2.149" y2="-1.8583" /><line stroke="black" x1="4.6418" x2="4.7504" y1="-1.8583" y2="-1.5602" /><line stroke="black" x1="4.7504" x2="4.8397" y1="-1.5602" y2="-1.2557" /><line stroke="black" x1="4.8397" x2="4.9096" y1="-1.2557" y2="-0.9463" /><line stroke="black" x1="4.9096" x2="4.9598" y1="-0.9463" y2="-0.633" /><line stroke="black" x1="4.9598" x2="4.9899" y1="-0.633" y2="-0.3171" /><line stroke="black" x1="4.9899" x2="5.0" y1="-0.3171" y2="-0.0" /><line stroke="black" x1="5.0" x2="5.0" y1="-0.0" y2="0.0" /></svg>