<?xml version="1.0" encoding="UTF-8"?>
<svg id="Layer_1" data-name="Layer 1" xmlns="http://www.w3.org/2000/svg" viewBox="0 0 1028.48 892.41">
  <defs>
    <style>
      .cls-1, .cls-2 {
        fill: none;
        stroke: #bc60a5;
        stroke-miterlimit: 10;
      }

      .cls-2 {
        fill-rule: evenodd;
      }
    </style>
  </defs>
  <path class="cls-2" d="m820.7,691.21c-9.42,18.57-17.65,31.75-32.34,38.43-10.35,4.7-20.15,1.45-30.28-2.41-24.5-9.36-29.74-34.96-24.28-69.04,2.87-17.93,8.12-24.62,13.37-30.98,14.75-17.87,45.93-26.65,64-19.75,7.44,2.84,19.58,17.9,20.43,25.88,1.7,16,.04,36.33-10.89,57.87Z"/>
  <path class="cls-2" d="m611.76,513.07c-9.81,7.07-17.59,11.66-27.13,11.02-6.72-.45-9.71.71-14.49-3.78-6.34-5.96-4.62-19.84,9.87-33.7,7.83-7.49,28.1-24.78,32.68-26.21,6.89-2.15,10.21-1.54,18.04,7.15,3.22,3.58,3.37,13.89,1.76,18.31-3.23,8.85-9.36,19.02-20.74,27.22Z"/>
  <path class="cls-2" d="m164.02,248.65c9.87,7.2,21.62,14.3,14.13,27.57-4.25,7.53-19.06,2.6-28.94-4.6s-13.95-18.2-8.85-25.19c5.1-6.99,13.78-4.99,23.66,2.21Z"/>
  <path class="cls-2" d="m117.41,199.27c11.21,15.92,17.84,24.19,1.9,41.77-8.35,9.21-27.38-.03-38.68-15.89-12.92-18.14-12.46-35.87-2.3-43.02,10.15-7.15,27.87,1.22,39.08,17.14Z"/>
  <path class="cls-2" d="m168.27,240.5c18.72,9.18,30.86,20.16,18.65,41.93-8.26,14.73-30.83,5.85-45.03-4.5-14.2-10.35-17.44-27.16-9.09-38.62,8.36-11.46,19.46-6.65,35.47,1.19Z"/>
  <path class="cls-2" d="m82.14,237.85c18.83,13.85,16.39,14.59,48,39.83,18.6,14.85,25.44,19.38,35.74,20.94,4.95.75,14,1.99,20.94-3.32,5.63-4.31,7.28-10.96,9.96-21.7,2.03-8.16,3.05-12.25,1.79-17.11-1.49-5.75-5.4-10.26-15.57-17.36-16.37-11.42-19.97-9.32-29.87-16.6-6.29-4.63-13.3-14.83-27.32-35.23-10.3-15-12.08-18.88-18.64-22.47-2.01-1.1-15.11-7.99-29.36-2.04-13.86,5.78-18.28,19.32-19.15,21.96-6.85,20.93,8.29,39.49,10.98,42.64,3.56,4.17,6.23,5.85,12.51,10.47Z"/>
  <path class="cls-2" d="m74.99,244.7c22.27,17.15,16.4,12.95,53.79,44.21,22,18.39,32.06,20.02,44.25,21.96,5.86.93,10.94-.06,19.15-6.64,6.66-5.34,10.12-12.75,13.28-26.06,2.4-10.11,3.53-17.45,2.04-23.47-1.76-7.12-3.21-11.12-15.25-19.91-19.36-14.15-23.62-11.54-35.33-20.56-7.44-5.73-11.22-22.08-27.8-47.36-12.19-18.58-18.8-19.68-26.55-24.12-2.37-1.36-14.89-3.42-31.75,3.95-16.39,7.17-23.14,27.88-24.16,31.15-8.1,25.93-3.19,38.3,4.6,48,4.17,5.19,16.32,13.13,23.74,18.85Z"/>
  <path class="cls-2" d="m35.17,262.76c-2.05-12.66-7.65-32.67-9.71-58.02s11.33-43.52,13.62-47.66c7.16-12.92,15.48-27.93,33.02-34.04,3.4-1.18,17.42-5.61,32,.34,3.31,1.35,13.05,5.85,28.94,32.34,18.37,30.63,15.32,36.77,25.53,46.98,12.62,12.62,21.95,6.9,42.89,14.64,4.28,1.58,19.13,9.38,21.79,25.19,5.38,32-5.48,64.49-9.87,71.49-5.29,8.44-10.26,16.38-19.4,18.72-11.08,2.84-25.53-3.98-38.98-11.91-16.89-9.97-23.76-16.52-29.66-13.81-1.93.89-4.37.68-2.85,11.76,2.85,20.74-3.3,28.44-7.83,34.72-3.41,4.74-10.93,9.65-29.47,8.91"/>
  <path class="cls-2" d="m49.97,274.87c3.14-1.56,8.68-20.68,36.26-2.3,16.88,11.26,32.49,30.54,25.53,50.04-5.73,16.08-22.71,22.03-25.53,22.98"/>
  <path class="cls-2" d="m16.52,245.7c-2.45-15.02-4.33-14.86-6.79-44.93-2.44-29.88,13.55-51.63,16.29-56.53,8.56-15.33,18.51-33.13,39.5-40.38,4.07-1.4,20.84-6.66,38.28.4,3.96,1.6,17.37,2.61,40.13,33.25,25.32,34.09,21.41,42.45,36.59,50.55,25.2,13.46,16.99,5.62,42.05,14.81,5.12,1.88,24.39,23.07,27.57,41.83,6.44,37.96-10.36,77.39-15.61,85.69-6.33,10.02-15.42,24.42-26.36,27.2-13.25,3.37-56.97-23.23-42.29-11.74,1.79,1.4-9.2-8.99-17.7-6.64-2.45.68-9.72,2.21-16.51,13.62-19.28,32.37-44.26,23.66-55.19,23.66"/>
  <path class="cls-2" d="m57.31,387.91c30.12,9.14,48.03,4.67,59.04-1.72,16.79-9.75,20.33-25.59,33.7-25.53,12.43.06,14.32,13.76,35.23,21.45,6.21,2.28,19.76,7.26,32.68,2.04,11.59-4.69,18.27-15.81,28.09-32.17,9.09-15.16,9.78-21.38,15.32-22.47,7.49-1.47,13.12,8.57,26.55,22.47,20.48,21.2,25.64,16.76,48,38.3,15.61,15.04,11.67,15.83,32.68,38.3,20.23,21.64,30.64,32.53,44.94,36.26,19.88,5.18,37.63-2.52,45.96-6.13,14.67-6.36,27.23-17.07,46.98-42.89s23.16-34.75,22.72-44.06c-.45-9.71-2.23-16.39-6.19-18.75-25.17-15.02-29.12-14.67-45.13-28.09-15.93-13.36-17.88-23.34-24-60.26-1.72-10.36-10.77-42.72-37.79-57.19-37.17-19.91-77.63-45.49-106.58-29.58-23.2,12.74-24.65,43.75-37.42,42.26-7.94-.93-13.02-13.7-27.32-26.21-8.61-7.54-35.64-22.58-42.55-26.85-17.96-11.1-13.53-12.74-42.9-48.03-19.24-23.12-28.33-29.67-39.92-34.14-23.74-9.16-48.6-3.61-61.79,2.04C17.64,104.11-6.46,161.54,2.29,228.53"/>
  <path class="cls-2" d="m42.77,397.58c7.81,4.8,24.56,18.98,22.01,25.88-8.7,23.48-8.4,28.28-9.7,51.06-1.25,21.88,9.18,50.83,33.7,64.85,18.51,10.58,45.01,12.63,63.32.51,25.82-17.09,35.72-56.57,34.72-81.64-.59-14.93-2.55-30.96,4.34-39.89s17.07.55,36.26-5.62c18.91-6.08,26.34-17.24,32.17-24.51,8.28-10.32,8.45-17.62,13.02-16.34,12.77,3.57,32.25,16.97,53.87,39.06,65.15,66.58,52.02,41.22,67.15,70.21,3.06,5.87-5.09,21.44-1.53,38.81,4.59,22.39,17.34,31.79,38.3,57.19,39.89,48.34,30.83,59.3,55.15,74.04,17.94,10.87,25.53,24.39,69.96,16.34,31.42-5.69,34.04-1.53,61.28,3.57,27.75,5.2,34.47,11.94,51.57,8.68,22.77-4.34,34.71-18.55,43.4-14.3,11.5,5.62-.79,38.96,15.15,62.97,12.13,18.28,13.34,23.44,26.21,22.81,20.94-1.02,38.9,2.5,45.23,9.7,17.07,19.43,9.63,39.31,23.71,72,11.8,27.4,40.09,56.14,70.98,58.72,37.17,3.11,65.84-32.68,86.3-58.21,14.18-17.69,41.6-73.45,48.51-152.17,2.17-24.73-22.42-65.62-44.37-90.64-6.75-7.69-27.08-19.72-33.76-32.43-1.45-2.76,1.07-5.69,1.97-7.32"/>
  <path class="cls-2" d="m880.27,471.97c-11.91,10.89-45.96,9.36-50.04,17.36-6.76,13.23,9.7,26.72,12.26,47.49,2.38,19.35-9.53,37.28-44.13,41.36-31.85,3.76-74.57-22.92-95.78-43.91-3.27-3.24-12.46-9.27-17.02-7.49-7.75,3.02-2.86,28.11.17,43.74,4.04,20.8,9.35,22.29,10.21,37.79.36,6.4-.52,30.73-15.49,41.7-10.89,7.98-22.86,4.84-30.98,3.23-21.55-4.26-25.79-12.76-55.83-30.96-13.96-8.46-29.71-22.76-52.43-25.72s-31.99,7.81-47.49-4.09c-23.32-17.9-54.98-34.04-68.6-78.3-1.09-3.55,1.51-13.27,14.98-26.55,16.03-15.8,32.96-14.02,68.43-24.85,24.45-7.47,38.26-13.31,56.17-34.72,16.88-20.19,17.36-32.34,37.79-42.55,19.59-9.8,45.88,3.07,41.53-11.23-9.43-30.98.73-25.28-8.01-50.48-5.84-16.82-20.15-25.15-33.45-26.05-36.5-2.46-55.11-4.07-74.11-17.26-7.01-4.86-26.72-7.66-35.91-56.68-3.49-18.64-10.11-32.77-18.38-33.7-21.11-2.38-37.13-.44-56.51-12.26-27.91-17.02-47.72-37.64-63.83-66.38-22.02-39.29-26.23-77.55-26.57-101.31"/>
  <path class="cls-2" d="m623.6,545.78c3.9,4.72,6.52,8.46,6.74,13.02.16,3.21.87,4.65-1,6.92-2.48,3.01-9.18,2.14-16.58-4.85-4-3.77-13.15-13.61-14.28-15.74-3.17-5.98-1.3-4.89,2.4-8.61,1.52-1.53,6.42-1.56,8.61-.77,4.39,1.58,9.56,4.55,14.09,10.03Z"/>
  <path class="cls-2" d="m733.04,510.36c-8.4-8.7-18.25-28.08-18.98-37.62-.52-6.72,6.89-15.83,13.79-20.17,7.36-4.64,22.79-15.32,32.43-6.38,7.95,7.37,17.33,50.31,19.4,54.64,3.11,6.52,23.49,12.51,17.62,29.36-1.58,4.55-17.11,8.94-32.94,1.28-8.48-4.1-21.57-11.01-31.32-21.1Z"/>
  <path class="cls-2" d="m724.42,527.81c-11.35-11.17-26.84-37.78-27.72-50.99-.62-9.3,2.3-23.49,17.87-30.89,11.26-5.35,34.57-15.02,49.79-11.46,5.73,1.34,9.13,11.43,12.26,20.14,4.45,12.39,7.56,24.68,9.19,28.09,4.17,8.73,44.5,34.06,36.26,58.21-2.22,6.51-26.3,25.53-55.15,12.77-11.4-5.04-29.31-12.91-42.49-25.87Z"/>
  <path class="cls-2" d="m78.68,450.83c4-18.07,8.22-31.25,19.82-40.24,8.17-6.34,18.74-9.08,27.79-4.62,20.96,10.34,30.66,11.36,38.64,40.22,4.31,15.58-7.6,41.62-10.79,48.26-8.96,18.65-28.86,28.34-46.76,26.4-7.37-.8-21.9-11.08-24.58-17.76-5.38-13.4-8.77-31.27-4.13-52.24Z"/>
  <path class="cls-2" d="m636.77,195.5c.56-13.9,4.58-24.06,10.91-32.08,4.46-5.65,8.5-7.06,14.94-7.4,15.57-.83,23.95,14.12,29.33,36.46,2.83,11.75,1.63,17.26.34,22.56-3.62,14.9-18.36,28.63-29.84,29.23-4.73.25-14.99-5.73-17.4-10.39-4.84-9.35-8.92-22.25-8.27-38.38Z"/>
  <path class="cls-2" d="m817.21,294.53c-14.55-10.21-47.75-24.33-62.04-29.36-22.72-7.99-32.46-1.93-49.02,2.55-36.77,9.96-26.37,55.7-22.72,69.19,2.55,9.45,22.24,60.3,30.61,61.53,15.6,2.3,37.56-17.62,51.09-24.26,28.21-13.84,63.19,24.23,82.72,7.4,5.27-4.54,20.99-41.06,3.06-62.04-7.09-8.29-20.58-15.82-33.7-25.02Z"/>
  <path class="cls-2" d="m702.57,174.78c-5.13-10.44-12.24-33.93-36.94-33.68-17.15.17-51.49,13.53-71.32,18.87-29.84,8.03-47.15,24.03-55.83,41.36-8.7,17.36-11.4,36.6,12.6,48.34,44.37,21.72,51.85-13.61,64.68-14.99,15.83-1.69,33.19,37.62,62.52,24.59,5.71-2.54,31.44-15.05,32.66-43.24.42-9.7-3.75-31.85-8.37-41.25Z"/>
  <path class="cls-2" d="m402.31,39.46c-15.06,49.28,28.99,94.99,36.26,99.32,13.54,8.08,19.42-10.12,33.45-4.6,25.28,9.96,45.45,41.11,67.66,24.26,27.46-20.83,39.74-47.79,41.62-75.32,1.13-16.6-.61-26.15-9.22-39.66"/>
  <path class="cls-2" d="m379.33,12.91c-4.57,16.61-13.91,37.09-5.87,65.62,3.66,12.99,10.47,26.55,23.24,44.68,8.31,11.81,21.19,27.57,33.7,33.7,16.99,8.32,42.59-.17,51.83,3.83,13.53,5.87,11.42,8.63,19.4,14.3,11.49,8.17,18.9,9.45,17.28,16.34-3.8,16.3-6.96,35.1-4,45.19,6.13,20.94,19.18,22.23,30.38,25.36,71.52,20,57.36-12.08,73.28-9.27,8.41,1.48,12.03,8.76,21.19,15.57,25.87,19.23,23.15,11.4,26.72,20.43,2.42,6.11-5.62,46.81,12.43,85.11,11.51,24.44,15.15,35.15,32,41.87,26.2,10.45,55.72-27.15,69.96-23.34,29.69,7.95,32.46,62.03,57.53,62.06,6.77,0,35.3-20.37,40.58-47.38,2.57-13.13,9.29-38.15,1.29-63.69-5.32-16.96-17.87-42.38-42.89-63.57-17.66-14.95-65.09-33.04-82.14-40.98,0,0,0,0,0-.01-.67-.31-1.28-.6-1.85-.88l1.85.88c-19.22-14.17-23.35-42.58-29.17-56.8-6.46-15.76-15.11-55.85-46.22-60.51-4.68-.7-24.57-.78-43.14,5.62-20.07,6.92-41.62,16.6-45.96,10.47-6.73-9.5,9.38-25.4,12-44.43,3.83-27.83.76-45.96-6.39-53.61"/>
  <path class="cls-2" d="m358.91.14c-5.04,16.75-15,51.91-6.13,80.68,4.04,13.1,17.57,31.25,31.66,49.53,9.17,11.91,33.16,33.47,46.97,39.65,18.75,8.39,32.71,1.25,42.91,5.28,14.93,5.92,24.18,16.46,27.06,26.55,4.09,14.3-2.5,21.16.34,27.74,11.23,26.04,3.15,15.96,10.89,23.32,20.43,19.4,24.28,21.92,36.77,24.51,27.06,5.62,37.28,9.7,51.57,3.06,8.52-3.96,10.83-5.33,20.94,1.53,28.55,19.39,25.16,16.44,29.11,25.53,2.67,6.16-4.76,42.4,15.15,81.02,12.7,24.64,16.94,32.45,35.54,39.23,14.09,5.13,34.2.88,48.21-5.53,14.74-6.74,25.71-15.99,31.32-9.87,11.23,12.26,22.57,60.34,62.81,59.57,17.87-.34,45.24-26.89,51.06-54.13,1.02-4.77,17.03-62.54-6.13-97.87-10.7-16.32-20.39-32.34-37.45-48-18.2-16.7-43.47-29.88-61.11-37.96-20.09-9.19-41.12-36.01-38.81-44.94,1.43-5.53,22.47,1.68,49.02,9.6,49.47,14.76,120.34,36.58,119.88,34.95"/>
  <path class="cls-2" d="m621.6,42.23c2.91,13.22,7.08,23.37,5.49,34.23-1.41,9.66-8.64,19.87-6.22,33.3.74,4.09,24.59-7.55,30.3-8.35,15.66-2.2,12.99-3.9,35.4.18,10.86,1.98,12.78-2.56,16.53-17.54"/>
  <path class="cls-2" d="m974.53,657.67c-5.74-22.97-21.32-30.05-29.91-33.88-6.04-2.69-19.33-2.2-24.68,2.22-5.71,4.72-10.94,16.12-6.47,30.3,3.68,11.69,22.3,13.28,29.62,21.62,13.9,15.84,14.1,55.46,29.11,52.09,9.73-2.19,12.55-21.3,10.8-40.85-.94-10.47-4.62-16.14-8.46-31.49Z"/>
  <path class="cls-2" d="m1000.44,666.02c-3.39-36.93-43.38-79.22-58.55-86.81-10.67-5.34-28.14-6.65-39.83-.75-12.49,6.3-13.61,23.22-9.87,55.56,1.12,9.64-6.47,22.43-1.88,29.96,5.74,9.41,24.23,13.11,30.48,21.11,21.36,27.34,18.58,91.46,48.49,91.53,25.39.07,29.36-31.22,34.15-61.72,2.57-16.4-.71-24.19-2.98-48.88Z"/>
  <path class="cls-2" d="m860.6,795.45c.85,27.83,14.63,40.02,22.25,46.66,5.36,4.67,18.46,7.58,24.62,3.92,6.57-3.91,15.3-5.5,17.74-16.61,3.09-14.07-19.66-21.96-27.06-52.81-5.63-23.45-4.85-63.38-20.24-63.45-9.98-.04-16.7,21.12-19.05,43.98-1.25,12.24,1.17,19.7,1.74,38.3Z"/>
  <path class="cls-2" d="m837.12,794.19c-1.7,37.58,18.31,58.95,32.43,68.68,9.93,6.84,20.94,10.94,33.45,6.64,13.35-4.6,30.66-11.54,37.79-25.79,13.28-26.55-18.24-34.28-29-76.6-8.18-32.17-4.98-82.46-35.12-84.13-19.54-1.09-28.86,23.2-36.22,53.75-3.94,16.36-2.18,32.33-3.32,57.45Z"/>
  <path class="cls-2" d="m481.21,402.94c-5.83,7.35-20.96,19.07-27.68,23.54-10.69,7.1-20.19,7.2-29.08,2.94-16.34-7.83-15.15-12.94-22.13-22.13-3.53-4.65-8.3-13.62-11.91-23.15-2.89-7.61-6.03-15.64.17-21.62,10.49-10.11,32.17,6.64,41.02,7.32,26.55,2.04,38.5-28.98,53.79-12.26,14.47,15.83,14.57,13.88,9.06,27.56-2.18,5.41-7.98,11.16-13.23,17.78Z"/>
  <path class="cls-2" d="m495.79,409.94c-7.69,9.82-28.4,24.86-37.69,30.49-14.75,8.96-30.73,8.88-44.05,1.93-24.49-12.78-20.93-16.04-32-29.79-5.59-6.95-17.4-20.65-22.72-34.89-6.55-17.53-1.01-36.19,8.77-42.16,25.19-15.37,36.12,6.2,48.85,8.97,15.44,3.36,24.34-1.19,44.77-8.17,10.72-3.66,19.3,7.19,36.09,14.81,20.87,9.47,23.92,16.54,15.25,34.49-3.58,7.41-10.33,15.48-17.26,24.33Z"/>
  <path class="cls-2" d="m337.21,230.7c5.3-4.48,8.26-6.38,14.72-8.26,10.07-2.91,16.51-2.9,23.66-.85,13.14,3.77,14.04,5.42,22.38,7.83,11.22,3.25,30.79,16.43,33.83,23.74,3.74,9.01,4.43,39.91-.64,44.68-13.06,12.29-26.79-9.52-31.97-12.77-6.96-4.36-35.15-2.52-46.9,2.27-9.47,3.86-14.75,4.7-22.24-.48-9.96-6.89-7.25-30.99-4.09-42.59,1.25-4.58,5.92-9.09,11.23-13.58Z"/>
  <path class="cls-2" d="m347.42,248.82c2.43-1.8,2.81-4.09,7.66-6.51,5.37-2.69,8.77-4.53,15.32-4.34,9.86.29,11.37,1.16,17.45,2.68,8.18,2.04,31.14,13.12,34.89,16.63,4.62,4.32,3.72,19.84.89,20.65-6.26,1.79-20.32-7.19-24.51-8.94-5.63-2.35-21.6-5.32-28.21-3.7-5.33,1.3-10.98,2.3-18.38,1.91-8.98-.46-7.15-3.57-9.57-7.4-1.1-1.74,2.03-9.18,4.46-10.98Z"/>
  <path class="cls-2" d="m296.1,238.87c7.91-18.13,10.73-27.54,20.17-31.91,14.69-6.82,25.93-10.93,35.74-9.19,18.04,3.2,30.42,9.42,41.87,11.49,15.4,2.78,41.55,22.83,45.96,33.45,6.89,16.6,6.66,61.84-1.22,70.55-20.32,22.44-36.51-9.47-43.35-13.54-9.2-5.47-36.62-1.09-56.79,21.89-10.69,12.18-22.35,22.5-32.17,15.83-13.07-8.88-9.45-27.06-8.17-50.3.44-7.97-6.71-37.56-2.04-48.26Z"/>
  <path class="cls-2" d="m920.49,252.81c-18.77-6.03-57.58-21.35-65.75-19.31-3.27.82-5.33,6.12-4.09,9.7,4.09,11.74,16.16,19.11,22.47,27.06,9.87,12.45,19.84,23.39,26.89,35.23,9.72,16.33,14.96,32.7,16.51,41.87,4.46,26.44.3,49.79-5.11,66.89"/>
  <path class="cls-2" d="m645.38,575.12c-2.38,20.77-12.6,31.32-29.28,26.21-14.45-4.42-13.39-11.41-18.72-28.26-4.78-15.09-9.63-22.59-12.57-25.87-.9-1.01-12.6-8.66-12.6-8.66-22.5-7.69-33.05-7.35-36.45-22.33-3.5-15.4,8.85-20.38,18.81-29.59,1.66-1.53,13.71-9.72,15.23-11.26,3.57-3.62,10.62-8.48,12.6-13.62,14.3-37.11,26.53-57.21,42.03-53.78,28.43,6.29,14.82,26,14.82,58.09,0,17.46-14.2,57.5-12.16,69.56,2.16,12.83,20.34,21.62,18.29,39.49Z"/>
  <path class="cls-2" d="m664.44,590.1c3.75,24.22-23.04,40.48-49.74,27.72-23.11-11.04-25.49-12.06-38.09-29.09-11.55-15.61-13.96-15.93-19.06-19.74-1.57-1.17-11.94-15.64-17.7-14.98-34.38,3.98-45.62,5.45-68.43-18.77-12.97-13.77-17.31-39.29,0-50,2.88-1.78,44.75-8.89,47.83-9.77,12.38-3.51,25.34-2.87,41.68-18.89,35.56-34.87,45.05-71.82,69.68-60.19,30.49,14.4,21.92,21.56,21.92,58.89,0,20.31-18.75,50.59-15.21,64.63,3.76,14.92,23.6,47.42,27.12,70.18Z"/>
  <path class="cls-2" d="m884.36,481.68c-8.68,7.51-14.04,8.68-28.09,12.51-4.94,1.35-7.87,4.15-7.4,6.13,5.36,22.98,14.72,47.29,12.77,60.51-4.09,27.57-18.89,29.36-17.36,42.64,2.5,21.64,1.69,51.64,8.17,51.83,4.56.13,19.83-11.99,20.17-53.62.26-31.15,17.58-44.51,26.55-50.55,4.96-3.34,16.04-9.2,17.36-19.4.35-2.72-.08-5.05-.51-6.64"/>
  <path class="cls-2" d="m726.74,98.53c3.28,11.05,11.42,32.55,27.91,51.49,5.55,6.37,13.58,21.81,37.02,28.6,26.17,7.57,39.21,9.32,72.77,16.85,15.09,3.39,32.65,8.78,51.83,17.62"/>
  <path class="cls-1" d="m532.36,405.59c-9.1,26.95-29.98,31.55-20.77,38.13,7.66,5.47,22.34-5.38,50.72-38.81,16.51-19.44,21.39-34.33,39.15-39.49,10.75-3.12,23.14-2.73,21.32-9.23-2.67-9.53.88-22.86-10.32-36.5-5.22-6.35-26.78-3.83-47.26-8.95s-47.33-13.53-61.45-34.85c-15.68-23.68-22.47-43.23-26.55-70.47-.48-3.22-7.95-1.59-19.4-5.11-9.44-2.9-22.1-2.05-24.85,3.4-2.61,5.18,5.62,10.09,15.32,23.49,21.3,29.42,14.62,56.84,32.34,80.68,14.16,19.05,32,12.96,48.68,30.98,18.44,19.92,13.72,27.54,13.96,31.94.52,9.63-4.4,15.57-10.89,34.79Z"/>
</svg>