<?xml version="1.0" encoding="UTF-8"?>
<svg xmlns="http://www.w3.org/2000/svg" viewBox="0 0 3273.84 1624.58">
  <defs>
    <style>
      .contour {
        stroke: #ef4325;
        fill: none;
        stroke-miterlimit: 10;
      }
      .outer {
        stroke: #000000;
        fill: none;
        stroke-miterlimit: 10;
      }
      .inner {
        stroke: #222222;
        fill: none;
        stroke-miterlimit: 10;
      }
    </style>
  </defs>
  <g id="outer_frame" data-name="outer frame">
    <path class="outer" d="m1260.29,740.51s14.47-17.98,16.85-31.15c1.74-9.62,1.36-29.96-5.96-47.07-3.58-8.38-14.98-38.2-14.98-38.2-1.62-10.82-1.56-21.96-3.19-32.78-.44-2.92,2.09-11.93,1.65-14.85-1.26-16.87-4.62-30.64-5.87-47.52,0,0-10.29-24.88-14.04-34.3-3.41-8.57-22.21-31.4-22.21-31.4l-30.42-16.24-40.82-.59s-27.62-1.32-36.83-1.28c-16.78.07-45.87-10.22-45.87-10.22l-38.48-20.69s-39.27-26.02-54.13-31.32c-14.76-5.27-53.11-3.74-53.11-3.74l-42.21,14.3-36.52,7.16-34.41,6.28-31.88,2.22-17.33-8.19-22.6-37.05s-11.41-13.21-16.06-16.27c-6.34-4.17-22.69-8.54-28.27-8.61-9.62-.13-20.47,5.61-26.97,12.66-5.64,6.12-6.59,24.73-7.25,32.71-.54,6.49,4.31,26.27,4.31,26.27l10.09,24.91,14.89,30.71s16.05,16.82,10.46,23.54c-8.82,10.59-39.57,2.19-51.19,5.29-9.02,2.4-12.32,7.71-35.71,24.93-5.66,4.17-20.43-9.36-29.26-12.54-8.58-3.09-30.52-19.96-30.52-19.96l-25.18-25.34-16.45-17.04s-7.53-9.8-21.99-21.97c-4.67-3.92-20.51-13.19-20.51-13.19,0,0-11.4-7.49-32.6-9.7-20.41-2.13-35.32,5.02-35.32,5.02,0,0-21.19,9.62-34.92,24.22-6.51,6.93-19.7,20.66-24.49,29.14-5.24,9.28-12.48,30.44-12.83,41.66-.35,11.1,1.87,39.84,6.37,50,2.83,6.4,17.87,27.83,17.87,27.83l36,32.94s18.58,25.44,23.99,33.58c4.36,6.56,12.71,27.08,12.71,27.08,0,0,5.22,26.01,1.5,33.51-3.54,7.13-26.78,21.17-26.78,21.17,0,0-19.67,13.22-28.91,18.96-6.89,4.28-8.06,3.26-6.19,5.68,2.31,2.99,9.05,8.39,9.57,24.13,0,0,1.61,25.1,2.56,33.4,1.1,9.64-.89,26.9,4.96,45.62,1.64,5.26,14.93,21.33,14.93,21.33,0,0,13.87,16.4,19.57,20.55,5.4,3.94,21.62,10.13,21.62,10.13,0,0,18.12,3.83,24.19,3.4,11.09-.78,32.72-3.22,43.01-12.38,6.5-5.79,19.78-17.56,25.87-24.05,5.62-6,17.48-30.01,17.48-30.01,0,0,3.63-20.55,7.01-30.33,2.04-5.92,2.82-21.89,7.55-26.01,4.19-3.64,23.07-7.38,28.15-9.63,7.08-3.14,16.8-13.85,23.45-17.81,3.05-1.82,9.02-3.39,12.56-3.07,8.08.71,19.56,15.52,25.96,20.47,5.66,4.37,17.01,16.18,22.21,21.08,4.23,3.99,12.4,11.68,15.32,16.71,4.38,7.54,10.2,26.11,10.2,26.11,0,0-1.17,23.61-.1,31.38.89,6.46,6.09,18.76,9.31,24.44,4.83,8.53,10.78,13.97,18.38,20.2,6.67,5.46,23,25.63,28.6,32.17,5.69,6.65,10.68,17.07,14.3,25.02,2.7,5.93,8.39,17.38,11.74,22.98,3.89,6.49,13.14,20.1,18.89,25.02,21.06,18,27.18,21.45,35.91,24.93,7.05,2.81,21.17,5.32,28.76,5.74,4.93.27,18.22-2.13,23.11-2.79,7.82-1.05,20.87.53,28.07-2.66,7.3-3.23,21.41-18.69,28.6-22.17,7.54-3.65,23.8-6.76,32.17-6.27,8.9.53,16.92,7.62,24.06,12.92,7.59,5.63,21.8,17.62,26.55,26.04,9.96,17.63,11.13,11.49,16.34,18.89,4.37,6.21,32.17,38.6,32.17,38.6l24,14.51s16.78,15.7,21.45,26.55c5.96,13.86,18.47,37.11,27.06,47.49,5.92,7.15,19.69,24.46,27.06,30.13,6.95,5.34,19.6,14.43,28,16.99,10.85,3.32,38.51,5.36,49.35,2.01,10.2-3.15,33.12-11.25,40.76-18.68,9.95-9.67,29-24.07,37.05-34.05,9.14-11.34,29.77-51.36,29.77-51.36l15.25-45.64s9.02-28.6,10.72-40.34c1.42-9.78,4.23-29.65,4.09-39.32-.13-8.94-4.58-25.05-6.64-33.7-2.79-11.74-17.65-37.02-17.65-37.02,0,0-17.71-26.55-24.73-33.96-7.9-8.33-38.81-22.24-38.81-22.24l-31.66-21.68-25.53-24.51s-16.1-24.48-20.23-34.15c-2.84-6.65-1.44-21.86.21-28.89,2.33-9.92,25.12-28.36,25.12-28.36l17.87-18.38.03-.04Z"/>
    <path class="inner" d="m833.52,676.63c-16.74-2.74-34.3-21.08-40.17-44.77-6.16-24.86.24-56.79,4.43-59.23,12.84-7.49,16,25.7,51.74,48.17,42.43,26.67,74.31,16.69,74.72,30.47.73,24.07-22.8,28.01-46.3,28.43-14.89.26-23.66.34-44.43-3.06Z"/>
  </g>
  <g id="contour">
    <path class="contour" d="m1153.31,1029.7c-9.42,18.57-17.65,31.75-32.34,38.43-10.35,4.7-20.15,1.45-30.28-2.41-24.5-9.36-29.74-34.96-24.28-69.04,2.87-17.93,8.12-24.62,13.37-30.98,14.75-17.87,45.93-26.65,64-19.75,7.44,2.84,19.58,17.9,20.43,25.88,1.7,16,.04,36.33-10.89,57.87h-.01Z"/>
    <path class="contour" d="m944.38,851.57c-9.81,7.07-17.59,11.66-27.13,11.02-6.72-.45-9.71.71-14.49-3.78-6.34-5.96-4.62-19.84,9.87-33.7,7.83-7.49,28.1-24.78,32.68-26.21,6.89-2.15,10.21-1.54,18.04,7.15,3.22,3.58,3.37,13.89,1.76,18.31-3.23,8.85-9.36,19.02-20.74,27.22h.01Z"/>
    <path class="contour" d="m496.63,587.15c9.87,7.2,21.62,14.3,14.13,27.57-4.25,7.53-19.06,2.6-28.94-4.6s-13.95-18.2-8.85-25.19c5.1-6.99,13.78-4.99,23.66,2.21h0Z"/>
    <path class="contour" d="m450.03,537.76c11.21,15.92,17.84,24.19,1.9,41.77-8.35,9.21-27.38-.03-38.68-15.89-12.92-18.14-12.46-35.87-2.3-43.02,10.15-7.15,27.87,1.22,39.08,17.14Z"/>
    <path class="contour" d="m500.89,578.99c18.72,9.18,30.86,20.16,18.65,41.93-8.26,14.73-30.83,5.85-45.03-4.5s-17.44-27.16-9.09-38.62c8.36-11.46,19.46-6.65,35.47,1.19Z"/>
    <path class="contour" d="m414.76,576.34c18.83,13.85,16.39,14.59,48,39.83,18.6,14.85,25.44,19.38,35.74,20.94,4.95.75,14,1.99,20.94-3.32,5.63-4.31,7.28-10.96,9.96-21.7,2.03-8.16,3.05-12.25,1.79-17.11-1.49-5.75-5.4-10.26-15.57-17.36-18.02-6.63-19.97-9.32-29.87-16.6-6.29-4.63-13.3-14.83-27.32-35.23-10.3-15-12.08-18.88-18.64-22.47-2.01-1.1-15.11-7.99-29.36-2.04-13.86,5.78-18.28,19.32-19.15,21.96-6.85,20.93,8.29,39.49,10.98,42.64,3.56,4.17,6.23,5.85,12.51,10.47h-.01Z"/>
    <path class="contour" d="m407.61,583.19c22.27,17.15,16.4,12.95,53.79,44.21,23.95,15.19,32.06,20.02,44.25,21.96,5.86.93,12.63,3.19,19.15-6.64,6.66-5.34,10.12-12.75,13.28-26.06,2.4-10.11,3.53-17.45,2.04-23.47-1.76-7.12-3.21-11.12-15.25-19.91-19.36-14.15-23.62-11.54-35.33-20.56-7.44-5.73-14.15-14.56-27.8-47.36-12.19-18.58-18.8-19.68-26.55-24.12-2.37-1.36-14.89-3.42-31.75,3.95-16.39,7.17-23.14,27.88-24.16,31.15-8.1,25.93-3.19,38.3,4.6,48,4.17,5.19,16.32,13.13,23.74,18.85h-.01Z"/>
    <path class="contour" d="m367.79,601.25c-2.05-12.66-7.65-32.67-9.71-58.02s11.33-43.52,13.62-47.66c7.16-12.92,15.48-27.93,33.02-34.04,3.4-1.18,17.42-5.61,32,.34,3.31,1.35,14.35,3.59,30.24,30.08,18.37,30.63,14.02,39.03,24.23,49.24,12.62,12.62,21.95,6.9,42.89,14.64,4.28,1.58,19.13,9.38,21.79,25.19,5.38,32-5.48,64.49-9.87,71.49-5.29,8.44-10.26,16.38-19.4,18.72-11.08,2.84-25.53-3.98-38.98-11.91-16.89-9.97-23.76-16.52-29.66-13.81-1.93.89-4.37.68-2.85,11.76,2.85,20.74-3.3,28.44-7.83,34.72-3.41,4.74-10.93,9.65-29.47,8.91l-68.04-7.59-10.21-73.19,28.23-18.87Z"/>
    <path class="contour" d="m414.65,686.26l-36.14,6.75-22.13-53.31,22.95-24.43c3.14-1.56,8.68-20.68,36.26-2.3,18.27,12.18,33.77,26.95,25.53,50.04-5.73,16.08-22.71,22.03-25.53,22.98l-.94.27Z"/>
    <path class="contour" d="m320.15,704.88l-2.03-70.47,31.02-50.23c-2.45-15.02-4.33-14.86-6.79-44.93-2.44-29.88,13.55-51.63,16.29-56.53,8.56-15.33,18.51-33.13,39.5-40.38,4.07-1.4,20.84-6.66,38.28.4,3.96,1.6,17.74,4.77,40.5,35.41,25.32,34.09,21.04,40.29,36.22,48.39,26.97,10.08,16.85,6.89,41.91,16.08,9.45,7.28,24.26,10.6,26.55,42.38.88,59.66-9.2,75.56-14.45,83.86-6.33,10.02-15.42,24.42-26.36,27.2-13.25,3.37-40-10.34-44.17-12.55-3.87-1.87-9.53-7.66-15.82-5.83-2.45.68-9.72,2.21-16.51,13.62-19.28,32.37-44.26,23.66-55.19,23.66l-88.94-10.09Z"/>
    <path class="contour" d="m300.41,613.65l10.55,98.04,78.97,14.7c30.12,9.14,48.03,4.67,59.04-1.72,16.79-9.75,21.79-22.6,33.7-25.53,17.49.38,15.81,8.8,36.12,19.01,6.21,2.28,18.87,9.7,31.79,4.48,11.59-4.69,18.27-15.81,28.09-32.17,9.09-15.16,9.78-21.38,15.32-22.47,7.49-1.47,13.12,8.57,26.55,22.47,20.48,21.2,25.64,16.76,48,38.3,15.61,15.04,15.32,13.27,32.68,38.3,20.23,21.64,31.53,30.73,45.83,34.46,19.88,5.18,36.74-.72,45.07-4.33,14.67-6.36,27.23-17.07,46.98-42.89,19.75-25.82,23.16-34.75,22.72-44.06-.45-9.71-2.23-16.39-6.19-18.75-25.17-15.02-29.12-14.67-45.13-28.09-15.93-13.36-17.88-23.34-24-60.26-1.72-10.36-10.77-42.72-37.79-57.19-37.17-19.91-77.63-45.49-106.58-29.58-23.2,12.74-24.65,43.75-37.42,42.26-7.94-.93-13.02-13.7-27.32-26.21-8.13-6.95-29.01-14.44-42.55-26.85-17.96-11.1-15.02-11.27-44.39-46.56-17.11-25.02-26.84-31.14-38.43-35.61-23.74-9.16-48.6-3.61-61.79,2.04-40,17.15-64.09,74.58-55.34,141.58l-34.48,46.62Z"/>
    <path class="contour" d="m334.45,731.59l-50.57,9.37,1.02,255.32,228.23,10.74,110.34,2.71,96.14,48.51,309.63,187.91,237.63,66.38,140.94-110.3,17.87-195.22-32.43-100.18-67.4-83.23-95.4-8.77-13.48,5.32c-8.68,7.51-14.04,8.68-28.09,12.51-4.94,1.35-7.87,4.15-7.4,6.13,5.36,22.98,14.72,47.29,12.77,60.51-4.09,27.57-18.89,29.36-17.36,42.64,2.5,21.64,1.69,51.64,8.17,51.83,4.56.13,19.83-11.99,20.17-53.62.26-31.15,17.58-44.51,26.55-50.55,4.96-3.34,16.04-9.2,17.36-19.4.35-2.72-.08-5.05-.51-6.64l4.48-7.29,45.68,5.11-14.48,28.01c-.9,1.63-3.42,4.56-1.97,7.32,6.68,12.71,27.01,24.74,33.76,32.43,21.95,25.02,46.54,65.91,44.37,90.64-6.91,78.72-34.33,134.48-48.51,152.17-20.46,25.53-49.13,61.32-86.3,58.21-30.89-2.58-59.18-31.32-70.98-58.72-14.08-32.69-6.64-52.57-23.71-72-6.33-7.2-24.29-10.72-45.23-9.7-12.87.63-14.08-4.53-26.21-22.81-15.94-24.01-3.65-57.35-15.15-62.97-8.69-4.25-20.63,9.96-43.4,14.3-17.1,3.26-23.82-3.48-51.57-8.68-27.24-5.1-29.86-9.26-61.28-3.57-44.43,8.05-52.02-5.47-69.96-16.34-24.32-14.74-15.26-25.7-55.15-74.04-20.96-25.4-33.71-34.8-38.3-57.19-3.56-17.37,4.59-32.94,1.53-38.81-24.39-26.8-2-3.63-67.15-70.21-25.92-18.5-35-32.43-51.46-39.19-4.57-1.28-7.15,6.15-15.43,16.47-5.83,7.27-13.26,18.43-32.17,24.51-19.19,6.17-29.37-3.31-36.26,5.62-6.89,8.93-4.93,24.96-4.34,39.89,1,25.07-8.9,64.55-34.72,81.64-18.31,12.12-44.81,10.07-63.32-.51-24.52-14.02-34.95-42.97-33.7-64.85,1.3-22.78,1-27.58,9.7-51.06,2.55-6.9-14.2-21.08-22.01-25.88l-40.94-4.48Z"/>
    <path class="contour" d="m708.75,281.05l82.21-19.91,150.13,32.17,166.98,24.51,140.94,20.64,70.39,94.77,15.9,130.72-60.26,18.82-21.94,8.54c-18.77-6.03-57.58-21.35-65.75-19.31-3.27.82-5.33,6.12-4.09,9.7,4.09,11.74,16.16,19.11,22.47,27.06,9.87,12.45,19.84,23.39,26.89,35.23,9.72,16.33,14.96,32.7,16.51,41.87,4.46,26.44.3,49.79-5.11,66.89l-.3,16.14-30.84,41.58c-11.91,10.89-45.96,9.36-50.04,17.36-6.76,13.23,9.7,26.72,12.26,47.49,2.38,19.35-9.53,37.28-44.13,41.36-31.85,3.76-74.57-22.92-95.78-43.91-3.27-3.24-12.46-9.27-17.02-7.49-7.75,3.02-2.86,28.11.17,43.74,4.04,20.8,9.35,22.29,10.21,37.79.36,6.4-.52,30.73-15.49,41.7-10.89,7.98-22.86,4.84-30.98,3.23-21.55-4.26-25.79-12.76-55.83-30.96-13.96-8.46-29.71-22.76-52.43-25.72s-31.99,7.81-47.49-4.09c-23.32-17.9-54.98-34.04-68.6-78.3-1.09-3.55,1.51-13.27,14.98-26.55,16.03-15.8,32.96-14.02,68.43-24.85,24.45-7.47,38.26-13.31,56.17-34.72,13.13-22.51,22.32-36.15,35.94-42.43,24-11.06,47.73,2.95,43.38-11.35-9.43-30.98.73-25.28-8.01-50.48-5.84-16.82-20.15-25.15-33.45-26.05-36.5-2.46-55.11-4.07-74.11-17.26-7.01-4.86-26.72-7.66-35.91-56.68-3.49-18.64-10.11-32.77-18.38-33.7-21.11-2.38-37.13-.44-56.51-12.26-27.91-17.02-47.72-37.64-63.83-66.38-22.02-39.29-26.23-77.55-26.57-101.31l48.88-67.59Z"/>
    <path class="contour" d="m956.22,884.28c3.9,4.72,6.52,8.46,6.74,13.02.16,3.21.87,4.65-1,6.92-2.48,3.01-9.18,2.14-16.58-4.85-4-3.77-13.15-13.61-14.28-15.74-3.17-5.98-1.3-4.89,2.4-8.61,1.52-1.53,6.42-1.56,8.61-.77,4.39,1.58,9.56,4.55,14.09,10.03h.02Z"/>
    <path class="contour" d="m1065.66,848.85c-8.4-8.7-18.25-28.08-18.98-37.62-.52-6.72,6.89-15.83,13.79-20.17,7.36-4.64,22.79-15.32,32.43-6.38,7.95,7.37,17.33,50.31,19.4,54.64,3.11,6.52,23.49,12.51,17.62,29.36-1.58,4.55-17.11,8.94-32.94,1.28-8.48-4.1-21.57-11.01-31.32-21.1h0Z"/>
    <path class="contour" d="m1057.04,866.3c-11.35-11.17-26.84-37.78-27.72-50.99-.62-9.3,2.3-23.49,17.87-30.89,11.26-5.35,34.57-15.02,49.79-11.46,5.73,1.34,9.13,11.43,12.26,20.14,4.45,12.39,7.56,24.68,9.19,28.09,4.17,8.73,44.5,34.06,36.26,58.21-2.22,6.51-26.3,25.53-55.15,12.77-11.4-5.04-29.31-12.91-42.49-25.87h-.01Z"/>
    <path class="contour" d="m411.3,789.32c4-18.07,8.22-31.25,19.82-40.24,8.17-6.34,18.74-9.08,27.79-4.62,20.96,10.34,30.66,11.36,38.64,40.22,4.31,15.58-7.6,41.62-10.79,48.26-8.96,18.65-28.86,28.34-46.76,26.4-7.37-.8-21.9-11.08-24.58-17.76-5.38-13.4-8.77-31.27-4.13-52.24v-.02Z"/>
    <path class="contour" d="m969.39,533.99c.56-13.9,4.58-24.06,10.91-32.08,4.46-5.65,8.5-7.06,14.94-7.4,15.57-.83,23.95,14.12,29.33,36.46,2.83,11.75,1.63,17.26.34,22.56-3.62,14.9-18.36,28.63-29.84,29.23-4.73.25-14.99-5.73-17.4-10.39-4.84-9.35-8.92-22.25-8.27-38.38h0Z"/>
    <path class="contour" d="m1149.83,633.02c-14.55-10.21-47.75-24.33-62.04-29.36-22.72-7.99-32.46-1.93-49.02,2.55-36.77,9.96-26.37,55.7-22.72,69.19,2.55,9.45,22.24,60.3,30.61,61.53,15.6,2.3,37.56-17.62,51.09-24.26,28.21-13.84,63.19,24.23,82.72,7.4,5.27-4.54,20.99-41.06,3.06-62.04-7.09-8.29-20.58-15.82-33.7-25.02h0Z"/>
    <path class="contour" d="m1035.19,513.27c-5.13-10.44-12.24-33.93-36.94-33.68-17.15.17-51.49,13.53-71.32,18.87-29.84,8.03-47.15,24.03-55.83,41.36s-11.4,36.6,12.6,48.34c44.37,21.72,51.85-13.61,64.68-14.99,15.83-1.69,33.19,37.62,62.52,24.59,5.71-2.54,31.44-15.05,32.66-43.24.42-9.7-3.75-31.85-8.37-41.25h0Z"/>
    <path class="contour" d="m734.93,377.96c-15.06,49.28,28.99,94.99,36.26,99.32,13.54,8.08,19.42-10.12,33.45-4.6,25.28,9.96,45.45,41.11,67.66,24.26,27.46-20.83,39.74-47.79,41.62-75.32,1.13-16.6-.61-26.15-9.22-39.66-5.17-7.66-13.85-18.18-27.44-26.6-32.75-20.31-61.82-16.89-70.21-16.34-62.3,4.09-72.12,38.94-72.12,38.94Z"/>
    <path class="contour" d="m711.95,351.4c-5.03,12.32-12.88,37.15-5.87,65.62,4.96,20.14,15.69,33.95,23.24,44.68,8.31,11.81,23.86,23.95,33.7,33.7,24.88,4.72,11.26-1.58,51.83,3.83,13.53,5.87,11.42,8.63,19.4,14.3,11.49,8.17,18.9,9.45,17.28,16.34-3.8,16.3-6.96,35.1-4,45.19,6.13,20.94,19.18,22.23,30.38,25.36,71.52,20,57.36-12.08,73.28-9.27,8.41,1.48,12.03,8.76,21.19,15.57,25.87,19.23,23.15,11.4,26.72,20.43,2.42,6.11-5.62,46.81,12.43,85.11,11.51,24.44,15.15,35.15,32,41.87,26.2,10.45,55.72-27.15,69.96-23.34,29.69,7.95,32.46,62.03,57.53,62.06,6.77,0,35.3-20.37,40.58-47.38,2.57-13.13,9.29-38.15,1.29-63.69-5.32-16.96-17.87-42.38-42.89-63.57-17.66-14.95-65.09-33.04-82.14-40.98h0c-.67-.32-1.28-.61-1.85-.89l1.85.88c-19.22-14.17-23.35-42.58-29.17-56.8-6.46-15.76-15.11-55.85-46.22-60.51-4.68-.7-24.57-.78-43.14,5.62-20.07,6.92-41.62,16.6-45.96,10.47-6.73-9.5,9.38-25.4,12-44.43,3.83-27.83.76-45.96-6.39-53.61-3.43-11.11-15.6-45.27-49.93-65.5-45.63-26.89-94.73-8.13-108-3.06-30.29,11.57-49.53,30.85-59.1,42Z"/>
    <path class="contour" d="m1193.86,348.65l89.36,97.34,20.94,108.77-51.05,17.33c.46,1.63-70.41-20.19-119.88-34.95-26.55-7.92-47.59-15.13-49.02-9.6-2.31,8.93,18.72,35.75,38.81,44.94,17.64,8.08,42.91,21.26,61.11,37.96,17.06,15.66,26.75,31.68,37.45,48,23.16,35.33,7.15,93.1,6.13,97.87-5.82,27.24-33.19,53.79-51.06,54.13-40.24.77-51.58-47.31-62.81-59.57-5.61-6.12-16.58,3.13-31.32,9.87-14.01,6.41-34.12,10.66-48.21,5.53-18.6-6.78-22.84-14.59-35.54-39.23-19.91-38.62-12.48-74.86-15.15-81.02-3.95-9.09-.56-6.14-29.11-25.53-10.11-6.86-12.42-5.49-20.94-1.53-14.29,6.64-24.51,2.56-51.57-3.06-12.49-2.59-16.34-5.11-36.77-24.51-7.74-7.36.34,2.72-10.89-23.32.03-5.48-1.16-11.95-.34-27.74-2.88-10.09-12.13-20.63-27.06-26.55-10.2-4.03-24.16,3.11-42.91-5.28-13.81-6.18-37.8-27.74-46.97-39.65-14.09-18.28-27.62-36.43-31.66-49.53-8.87-28.77,1.09-63.93,6.13-80.68l59.6-48.73,77.62-8.85,92.6,27.57,32.87,72.09c2.91,13.22,7.08,23.37,5.49,34.23-1.41,9.66-8.64,19.87-6.22,33.3.74,4.09,24.59-7.55,30.3-8.35,15.66-2.2,12.99-3.9,35.4.18,10.86,1.98,12.78-2.56,16.53-17.54v-43.44l20.27-25.53,137.87-4.92Z"/>
    <path class="contour" d="m1307.14,996.16c-5.74-22.97-21.32-30.05-29.91-33.88-6.04-2.69-19.33-2.2-24.68,2.22-5.71,4.72-10.94,16.12-6.47,30.3,3.68,11.69,22.3,13.28,29.62,21.62,13.9,15.84,14.1,55.46,29.11,52.09,9.73-2.19,12.55-21.3,10.8-40.85-.94-10.47-4.62-16.14-8.46-31.49h-.01Z"/>
    <path class="contour" d="m1333.06,1004.51c-3.39-36.93-43.38-79.22-58.55-86.81-10.67-5.34-28.14-6.65-39.83-.75-12.49,6.3-13.61,23.22-9.87,55.56,1.12,9.64-6.47,22.43-1.88,29.96,5.74,9.41,24.23,13.11,30.48,21.11,21.36,27.34,18.58,91.46,48.49,91.53,25.39.07,29.36-31.22,34.15-61.72,2.57-16.4-.71-24.19-2.98-48.88h-.01Z"/>
    <path class="contour" d="m1193.22,1133.94c.85,27.83,14.63,40.02,22.25,46.66,5.36,4.67,18.46,7.58,24.62,3.92,6.57-3.91,15.3-5.5,17.74-16.61,3.09-14.07-19.66-21.96-27.06-52.81-5.63-23.45-4.85-63.38-20.24-63.45-9.98-.04-16.7,21.12-19.05,43.98-1.25,12.24,1.17,19.7,1.74,38.3h0Z"/>
    <path class="contour" d="m1169.74,1132.68c-1.7,37.58,18.31,58.95,32.43,68.68,9.93,6.84,20.94,10.94,33.45,6.64,13.35-4.6,30.66-11.54,37.79-25.79,13.28-26.55-18.24-34.28-29-76.6-8.18-32.17-4.98-82.46-35.12-84.13-19.54-1.09-28.86,23.2-36.22,53.75-3.94,16.36-2.18,32.33-3.32,57.45h-.01Z"/>
    <path class="contour" d="m813.82,741.43c-5.83,7.35-20.96,19.07-27.68,23.54-10.69,7.1-20.19,7.2-29.08,2.94-16.34-7.83-15.15-12.94-22.13-22.13-3.53-4.65-8.3-13.62-11.91-23.15-2.89-7.61-6.03-15.64.17-21.62,10.49-10.11,32.17,6.64,41.02,7.32,26.55,2.04,38.5-28.98,53.79-12.26,14.47,15.83,14.57,13.88,9.06,27.56-2.18,5.41-7.98,11.16-13.23,17.78v.02Z"/>
    <path class="contour" d="m828.41,748.43c-7.69,9.82-28.4,24.86-37.69,30.49-14.75,8.96-30.73,8.88-44.05,1.93-24.49-12.78-20.93-16.04-32-29.79-5.59-6.95-17.4-20.65-22.72-34.89-6.55-17.53-1.01-36.19,8.77-42.16,25.19-15.37,36.12,6.2,48.85,8.97,15.44,3.36,24.34-1.19,44.77-8.17,10.72-3.66,19.3,7.19,36.09,14.81,20.87,9.47,23.92,16.54,15.25,34.49-3.58,7.41-10.33,15.48-17.26,24.33h-.01Z"/>
    <path class="contour" d="m669.83,569.19c5.3-4.48,8.26-6.38,14.72-8.26,10.07-2.91,16.51-2.9,23.66-.85,13.14,3.77,14.04,5.42,22.38,7.83,11.22,3.25,30.79,16.43,33.83,23.74,3.74,9.01,4.43,39.91-.64,44.68-12.82,8.81-26.79-9.52-31.97-12.77-6.96-4.36-35.15-2.52-46.9,2.27-9.47,3.86-14.75,4.7-22.24-.48-9.96-6.89-7.25-30.99-4.09-42.59,1.25-4.58,5.92-9.09,11.23-13.58h.02Z"/>
    <path class="contour" d="m680.04,587.32c2.43-1.8,2.81-4.09,7.66-6.51,5.37-2.69,8.77-4.53,15.32-4.34,9.86.29,11.37,1.16,17.45,2.68,8.18,2.04,31.14,13.12,34.89,16.63,4.62,4.32,3.72,19.84.89,20.65-6.26,1.79-20.32-7.19-24.51-8.94-5.63-2.35-21.6-5.32-28.21-3.7-5.33,1.3-10.98,2.3-18.38,1.91-8.98-.46-7.15-3.57-9.57-7.4-1.1-1.74,2.03-9.18,4.46-10.98h0Z"/>
    <path class="contour" d="m628.72,577.36c7.91-18.13,10.73-27.54,20.17-31.91,14.69-6.82,25.93-10.93,35.74-9.19,18.17.82,30.83,4.8,41.87,11.49,15.4,2.78,41.55,22.83,45.96,33.45,6.89,16.6,6.66,61.84-1.22,70.55-23.85,22.33-36.51-9.47-43.35-13.54-9.2-5.47-34.46-1.41-57.27,20.38-10.69,12.18-21.87,24.01-31.69,17.34-13.07-8.88-9.45-27.06-8.17-50.3.44-7.97-6.71-37.56-2.04-48.26h0Z"/>
    <path class="contour" d="m978,913.61c-2.38,20.77-12.6,31.32-29.28,26.21-14.45-4.42-13.39-11.41-18.72-28.26-4.78-15.09-9.63-22.59-12.57-25.87-.9-1.01-12.6-8.66-12.6-8.66-22.5-7.69-33.05-7.35-36.45-22.33s8.85-20.38,18.81-29.59c1.66-1.53,13.71-9.72,15.23-11.26,3.57-3.62,10.62-8.48,12.6-13.62,14.3-37.11,26.53-57.21,42.03-53.78,28.43,6.29,14.82,26,14.82,58.09,0,8.12.56,23.49-4.57,34.99-6.98,15.66-9.77,25.21-8.68,31.66,1.26,7.49,5.35,8.55,15.66,21.45,4.09,5.11,4.03,13.23,3.72,20.96v.02Z"/>
    <path class="contour" d="m997.06,928.59c3.75,24.22-23.04,40.48-49.74,27.72-23.11-11.04-25.49-12.06-38.09-29.09-11.55-15.61-13.96-15.93-19.06-19.74-1.57-1.17-11.94-15.64-17.7-14.98-34.38,3.98-45.62,5.45-68.43-18.77-12.97-13.77-17.31-39.29,0-50,2.88-1.78,44.75-8.89,47.83-9.77,12.38-3.51,28.41-4.2,43.15-21.75,11.96-14.25,18.33-30.27,25.82-40.17,14.42-19.07,26.18-24.81,42.39-17.16,30.49,14.4,21.92,21.56,21.92,58.89,0,20.31-18.75,50.59-15.21,64.63,3.76,14.92,23.6,47.42,27.12,70.18h0Z"/>
    <path class="contour" d="m1271.47,551.58v-57.1l-79.59-106.7h-127.44l-5.08,49.24c3.28,11.05,11.42,32.55,27.91,51.49,5.55,6.37,13.58,21.81,37.02,28.6,26.17,7.57,39.21,9.32,72.77,16.85,15.09,3.39,32.65,8.78,51.83,17.62h22.58Z"/>
    <path class="contour" d="m864.37,743.01c-9.1,26.78-29.98,31.36-20.77,37.89,7.66,5.43,22.34-5.35,50.72-38.57,16.51-19.32,21.39-34.12,39.15-39.24,10.75-3.1,23.14-2.72,21.32-9.18-2.67-9.47.88-22.72-10.32-36.27-5.22-6.31-26.78-3.81-47.26-8.89s-47.33-13.45-61.45-34.63c-15.68-23.54-22.47-42.96-26.55-70.03-.48-3.2-7.95-1.58-19.4-5.07-9.44-2.88-22.1-2.03-24.85,3.38-2.61,5.15,5.62,10.02,15.32,23.34,21.3,29.24,14.62,56.49,32.34,80.18,14.16,18.93,32,12.88,48.68,30.79,18.44,19.79,13.72,27.37,13.96,31.74.52,9.57-4.4,15.48-10.89,34.57Z"/>
    <path class="contour" d="m1353.69,882.59c-2.79-.79-6.94-1.46-11.23,0-12.18,4.16-15.31,22.03-15.83,25.02-4.94,28.23,32.39,45.71,49.53,80.17,19.02,38.24,4.85,80.58-7.15,116.43-21.3,63.64-81.94,161.91-141.45,152.17-71.76-11.74-55.66-19.4-93.45-59.74-12.79-13.66-26.04-52.34-31.15-58.72-7.67-9.59-22.98-14.81-73.53-64.85-12.33-12.21-12.3-22.43-20.94-29.62-19.74-16.44-45.07-3.71-105.19,2.55-46.8,4.88-70.2,7.32-89.36-4.09-6.69-3.98-20.89-23.99-49.02-63.83-27.64-39.15-27.34-40.84-38.3-53.11-19-21.27-25.63-22.6-30.13-36.26-5.81-17.65,1.4-27.1-5.62-51.57-3.54-12.36-8.55-20.97-11.23-25.53-4.88-8.28-8.45-12.01-54.13-49.02-4.81-3.89-12.82-10.24-18.38-7.66-2.47,1.14-3.12,3.43-4.6,6.13-5.95,10.9-18.23,15.68-29.11,19.91-13.86,5.4-15.45,1.82-20.94,6.13-9.3,7.3-7.55,19.79-10.21,35.23-4.41,25.56-18.14,43.18-23.49,50.04-6.27,8.05-25.54,32.77-58.72,36.77-26.08,3.14-46.02-8.29-51.57-11.74-33.54-20.86-40-60.01-40.34-62.3-1.7-11.38-.68-21.44-3.57-63.83-.36-5.3-1.24-16.08-8.68-20.94-1.33-.87-4.88-2.85-14.81-2.04-6.5.53-17.43,2.4-30.13,9.7l-5.36,57.19,16.09,125.91,138.94,27.28,145.23-49.02,83.25,34.47,75.37,91.91,103.32,58.21,144.07,82.22,90.01,43.4,119.56,48.26,65.35-6.89,98.65-121.79,27.73-127.7-40.6-95.96-18.89-42.89Z"/>
    <path class="contour" d="m389.52,1115.6l-184.26-46.89,18.38-358.61s-6.3-277.09,39.83-352.96c35.73-58.76,228.47-153.19,228.47-153.19l391.95-12.26,387.57,106.61,203.74,196.17-105.7,221.57,130.21,207.91,45.96,332.43-173.11,162.38-458.35-70.47-275.43-154.72-209.53-65.53-39.74-12.43Z"/>
  </g>
</svg>