<?xml version="1.0" encoding="UTF-8"?>
<svg xmlns:ns0="http://www.w3.org/2000/svg" id="Layer_14" data-name="Layer 14" viewBox="0 0 3315.21 2892.83">
  <defs>
    <style>
      .contour {
        fill: none;
        fill-rule: evenodd;
        stroke: #f246f2;
        stroke-miterlimit: 10;
      }
      .outer {
        fill: none;
        fill-rule: evenodd;
        stroke: #ffffff;
        stroke-miterlimit: 10;
      }
    </style>
  </defs>
  <path class="outer" d="m1301.61,740.12s14.47-17.98,16.85-31.15c1.74-9.62,1.36-29.96-5.96-47.07-3.58-8.38-14.98-38.2-14.98-38.2-1.62-10.82-1.56-21.96-3.19-32.78-.44-2.92,2.09-11.93,1.65-14.85-1.26-16.87-4.62-30.64-5.87-47.52,0,0-10.29-24.88-14.04-34.3-3.41-8.57-22.21-31.4-22.21-31.4l-30.42-16.24-40.82-.59s-27.62-1.32-36.83-1.28c-16.78.07-45.87-10.22-45.87-10.22l-38.48-20.69s-39.27-26.02-54.13-31.32c-14.76-5.27-53.11-3.74-53.11-3.74l-42.21,14.3-36.52,7.16-34.41,6.28-31.88,2.22-17.33-8.19-22.6-37.05s-11.41-13.21-16.06-16.27c-6.34-4.17-22.69-8.54-28.27-8.61-9.62-.13-20.47,5.61-26.97,12.66-5.64,6.12-6.59,24.73-7.25,32.71-.54,6.49,4.31,26.27,4.31,26.27l10.09,24.91,14.89,30.71s16.05,16.82,10.46,23.54c-8.82,10.59-39.57,2.19-51.19,5.29-9.02,2.4-12.32,7.71-35.71,24.93-5.66,4.17-20.43-9.36-29.26-12.54-8.58-3.09-30.52-19.96-30.52-19.96l-25.18-25.34-16.45-17.04s-7.53-9.8-21.99-21.97c-4.67-3.92-20.51-13.19-20.51-13.19,0,0-11.4-7.49-32.6-9.7-20.41-2.13-35.32,5.02-35.32,5.02,0,0-21.19,9.62-34.92,24.22-6.51,6.93-19.7,20.66-24.49,29.14-5.24,9.28-12.48,30.44-12.83,41.66-.35,11.1,1.87,39.84,6.37,50,2.83,6.4,17.87,27.83,17.87,27.83l36,32.94s18.58,25.44,23.99,33.58c4.36,6.56,12.71,27.08,12.71,27.08,0,0,5.22,26.01,1.5,33.51-3.54,7.13-26.78,21.17-26.78,21.17,0,0-19.67,13.22-28.91,18.96-6.89,4.28-8.06,3.26-6.19,5.68,2.31,2.99,9.05,8.39,9.57,24.13,0,0,1.61,25.1,2.56,33.4,1.1,9.64-.89,26.9,4.96,45.62,1.64,5.26,14.93,21.33,14.93,21.33,0,0,13.87,16.4,19.57,20.55,5.4,3.94,21.62,10.13,21.62,10.13,0,0,18.12,3.83,24.19,3.4,11.09-.78,32.72-3.22,43.01-12.38,6.5-5.79,19.78-17.56,25.87-24.05,5.62-6,17.48-30.01,17.48-30.01,0,0,3.63-20.55,7.01-30.33,2.04-5.92,2.82-21.89,7.55-26.01,4.19-3.64,23.07-7.38,28.15-9.63,7.08-3.14,16.8-13.85,23.45-17.81,3.05-1.82,9.02-3.39,12.56-3.07,8.08.71,19.56,15.52,25.96,20.47,5.66,4.37,17.01,16.18,22.21,21.08,4.23,3.99,12.4,11.68,15.32,16.71,4.38,7.54,10.2,26.11,10.2,26.11,0,0-1.17,23.61-.1,31.38.89,6.46,6.09,18.76,9.31,24.44,4.83,8.53,10.78,13.97,18.38,20.2,6.67,5.46,23,25.63,28.6,32.17,5.69,6.65,10.68,17.07,14.3,25.02,2.7,5.93,8.39,17.38,11.74,22.98,3.89,6.49,13.14,20.1,18.89,25.02,21.06,18,27.18,21.45,35.91,24.93,7.05,2.81,21.17,5.32,28.76,5.74,4.93.27,18.22-2.13,23.11-2.79,7.82-1.05,20.87.53,28.07-2.66,7.3-3.23,21.41-18.69,28.6-22.17,7.54-3.65,23.8-6.76,32.17-6.27,8.9.53,16.92,7.62,24.06,12.92,7.59,5.63,21.8,17.62,26.55,26.04,9.96,17.63,11.13,11.49,16.34,18.89,4.37,6.21,32.17,38.6,32.17,38.6l24,14.51s16.78,15.7,21.45,26.55c5.96,13.86,18.47,37.11,27.06,47.49,5.92,7.15,19.69,24.46,27.06,30.13,6.95,5.34,19.6,14.43,28,16.99,10.85,3.32,38.51,5.36,49.35,2.01,10.2-3.15,33.12-11.25,40.76-18.68,9.95-9.67,29-24.07,37.05-34.05,9.14-11.34,29.77-51.36,29.77-51.36l15.25-45.64s9.02-28.6,10.72-40.34c1.42-9.78,4.23-29.65,4.09-39.32-.13-8.94-4.58-25.05-6.64-33.7-2.79-11.74-15.32-37.79-15.32-37.79,0,0-20.04-25.78-27.06-33.19-7.9-8.33-38.81-22.24-38.81-22.24l-31.66-21.68-25.53-24.51s-16.1-24.48-20.23-34.15c-2.84-6.65-1.44-21.86.21-28.89,2.33-9.92,25.12-28.36,25.12-28.36l17.87-18.38Z" />
  <path class="contour" d="m1194.54,1029.31c-9.42,18.57-17.65,31.75-32.34,38.43-10.35,4.7-20.15,1.45-30.28-2.41-24.5-9.36-29.74-34.96-24.28-69.04,2.87-17.93,8.12-24.62,13.37-30.98,14.75-17.87,45.93-26.65,64-19.75,7.44,2.84,19.58,17.9,20.43,25.88,1.7,16,.04,36.33-10.89,57.87Z" />
  <path class="contour" d="m985.61,851.18c-9.81,7.07-17.59,11.66-27.13,11.02-6.72-.45-9.71.71-14.49-3.78-6.34-5.96-4.62-19.84,9.87-33.7,7.83-7.49,28.1-24.78,32.68-26.21,6.89-2.15,10.21-1.54,18.04,7.15,3.22,3.58,3.37,13.89,1.76,18.31-3.23,8.85-9.36,19.02-20.74,27.22Z" />
  <path class="contour" d="m537.86,586.76c9.87,7.2,21.62,14.3,14.13,27.57-4.25,7.53-19.06,2.6-28.94-4.6s-13.95-18.2-8.85-25.19c5.1-6.99,13.78-4.99,23.66,2.21Z" />
  <path class="contour" d="m491.26,537.37c11.21,15.92,17.84,24.19,1.9,41.77-8.35,9.21-27.38-.03-38.68-15.89-12.92-18.14-12.46-35.87-2.3-43.02,10.15-7.15,27.87,1.22,39.08,17.14Z" />
  <path class="contour" d="m542.12,578.6c18.72,9.18,30.86,20.16,18.65,41.93-8.26,14.73-30.83,5.85-45.03-4.5-14.2-10.35-17.44-27.16-9.09-38.62,8.36-11.46,19.46-6.65,35.47,1.19Z" />
  <path class="contour" d="m455.99,575.95c18.83,13.85,16.39,14.59,48,39.83,18.6,14.85,25.44,19.38,35.74,20.94,4.95.75,14,1.99,20.94-3.32,5.63-4.31,7.28-10.96,9.96-21.7,2.03-8.16,3.05-12.25,1.79-17.11-1.49-5.75-5.4-10.26-15.57-17.36-16.37-11.42-19.97-9.32-29.87-16.6-6.29-4.63-13.3-14.83-27.32-35.23-10.3-15-12.08-18.88-18.64-22.47-2.01-1.1-15.11-7.99-29.36-2.04-13.86,5.78-18.28,19.32-19.15,21.96-6.85,20.93,8.29,39.49,10.98,42.64,3.56,4.17,6.23,5.85,12.51,10.47Z" />
  <path class="contour" d="m448.84,582.8c22.27,17.15,16.4,12.95,53.79,44.21,22,18.39,32.06,20.02,44.25,21.96,5.86.93,10.94-.06,19.15-6.64,6.66-5.34,10.12-12.75,13.28-26.06,2.4-10.11,3.53-17.45,2.04-23.47-1.76-7.12-3.21-11.12-15.25-19.91-19.36-14.15-23.62-11.54-35.33-20.56-7.44-5.73-11.22-22.08-27.8-47.36-12.19-18.58-18.8-19.68-26.55-24.12-2.37-1.36-14.89-3.42-31.75,3.95-16.39,7.17-23.14,27.88-24.16,31.15-8.1,25.93-3.19,38.3,4.6,48,4.17,5.19,16.32,13.13,23.74,18.85Z" />
  <path class="contour" d="m997.45,883.89c3.9,4.72,6.52,8.46,6.74,13.02.16,3.21.87,4.65-1,6.92-2.48,3.01-9.18,2.14-16.58-4.85-4-3.77-13.15-13.61-14.28-15.74-3.17-5.98-1.3-4.89,2.4-8.61,1.52-1.53,6.42-1.56,8.61-.77,4.39,1.58,9.56,4.55,14.09,10.03Z" />
  <path class="contour" d="m1106.89,848.46c-8.4-8.7-18.25-28.08-18.98-37.62-.52-6.72,6.89-15.83,13.79-20.17,7.36-4.64,22.79-15.32,32.43-6.38,7.95,7.37,17.33,50.31,19.4,54.64,3.11,6.52,23.49,12.51,17.62,29.36-1.58,4.55-17.11,8.94-32.94,1.28-8.48-4.1-21.57-11.01-31.32-21.1Z" />
  <path class="contour" d="m1098.27,865.91c-11.35-11.17-26.84-37.78-27.72-50.99-.62-9.3,2.3-23.49,17.87-30.89,11.26-5.35,34.57-15.02,49.79-11.46,5.73,1.34,9.13,11.43,12.26,20.14,4.45,12.39,7.56,24.68,9.19,28.09,4.17,8.73,44.5,34.06,36.26,58.21-2.22,6.51-26.3,25.53-55.15,12.77-11.4-5.04-29.31-12.91-42.49-25.87Z" />
  <path class="contour" d="m452.53,788.93c4-18.07,8.22-31.25,19.82-40.24,8.17-6.34,18.74-9.08,27.79-4.62,20.96,10.34,30.66,11.36,38.64,40.22,4.31,15.58-7.6,41.62-10.79,48.26-8.96,18.65-28.86,28.34-46.76,26.4-7.37-.8-21.9-11.08-24.58-17.76-5.38-13.4-8.77-31.27-4.13-52.24Z" />
  <path class="contour" d="m1010.62,533.6c.56-13.9,4.58-24.06,10.91-32.08,4.46-5.65,8.5-7.06,14.94-7.4,15.57-.83,23.95,14.12,29.33,36.46,2.83,11.75,1.63,17.26.34,22.56-3.62,14.9-18.36,28.63-29.84,29.23-4.73.25-14.99-5.73-17.4-10.39-4.84-9.35-8.92-22.25-8.27-38.38Z" />
  <path class="contour" d="m1191.06,632.63c-14.55-10.21-47.75-24.33-62.04-29.36-22.72-7.99-32.46-1.93-49.02,2.55-36.77,9.96-26.37,55.7-22.72,69.19,2.55,9.45,22.24,60.3,30.61,61.53,15.6,2.3,37.56-17.62,51.09-24.26,28.21-13.84,63.19,24.23,82.72,7.4,5.27-4.54,20.99-41.06,3.06-62.04-7.09-8.29-20.58-15.82-33.7-25.02Z" />
  <path class="contour" d="m1076.42,512.88c-5.13-10.44-12.24-33.93-36.94-33.68-17.15.17-51.49,13.53-71.32,18.87-29.84,8.03-47.15,24.03-55.83,41.36s-11.4,36.6,12.6,48.34c44.37,21.72,51.85-13.61,64.68-14.99,15.83-1.69,33.19,37.62,62.52,24.59,5.71-2.54,31.44-15.05,32.66-43.24.42-9.7-3.75-31.85-8.37-41.25Z" />
  <path class="contour" d="m1348.37,995.77c-5.74-22.97-21.32-30.05-29.91-33.88-6.04-2.69-19.33-2.2-24.68,2.22-5.71,4.72-10.94,16.12-6.47,30.3,3.68,11.69,22.3,13.28,29.62,21.62,13.9,15.84,14.1,55.46,29.11,52.09,9.73-2.19,12.55-21.3,10.8-40.85-.94-10.47-4.62-16.14-8.46-31.49Z" />
  <path class="contour" d="m1374.29,1004.12c-3.39-36.93-43.38-79.22-58.55-86.81-10.67-5.34-28.14-6.65-39.83-.75-12.49,6.3-13.61,23.22-9.87,55.56,1.12,9.64-6.47,22.43-1.88,29.96,5.74,9.41,24.23,13.11,30.48,21.11,21.36,27.34,18.58,91.46,48.49,91.53,25.39.07,29.36-31.22,34.15-61.72,2.57-16.4-.71-24.19-2.98-48.88Z" />
  <path class="contour" d="m1234.45,1133.55c.85,27.83,14.63,40.02,22.25,46.66,5.36,4.67,18.46,7.58,24.62,3.92,6.57-3.91,15.3-5.5,17.74-16.61,3.09-14.07-19.66-21.96-27.06-52.81-5.63-23.45-4.85-63.38-20.24-63.45-9.98-.04-16.7,21.12-19.05,43.98-1.25,12.24,1.17,19.7,1.74,38.3Z" />
  <path class="contour" d="m1210.97,1132.29c-1.7,37.58,18.31,58.95,32.43,68.68,9.93,6.84,20.94,10.94,33.45,6.64,13.35-4.6,30.66-11.54,37.79-25.79,13.28-26.55-18.24-34.28-29-76.6-8.18-32.17-4.98-82.46-35.12-84.13-19.54-1.09-28.86,23.2-36.22,53.75-3.94,16.36-2.18,32.33-3.32,57.45Z" />
  <path class="contour" d="m855.05,741.04c-5.83,7.35-20.96,19.07-27.68,23.54-10.69,7.1-20.19,7.2-29.08,2.94-16.34-7.83-15.15-12.94-22.13-22.13-3.53-4.65-8.3-13.62-11.91-23.15-2.89-7.61-6.03-15.64.17-21.62,10.49-10.11,32.17,6.64,41.02,7.32,26.55,2.04,38.5-28.98,53.79-12.26,14.47,15.83,14.57,13.88,9.06,27.56-2.18,5.41-7.98,11.16-13.23,17.78Z" />
  <path class="contour" d="m869.64,748.04c-7.69,9.82-28.4,24.86-37.69,30.49-14.75,8.96-30.73,8.88-44.05,1.93-24.49-12.78-20.93-16.04-32-29.79-5.59-6.95-17.4-20.65-22.72-34.89-6.55-17.53-1.01-36.19,8.77-42.16,25.19-15.37,36.12,6.2,48.85,8.97,15.44,3.36,24.34-1.19,44.77-8.17,10.72-3.66,19.3,7.19,36.09,14.81,20.87,9.47,23.92,16.54,15.25,34.49-3.58,7.41-10.33,15.48-17.26,24.33Z" />
  <path class="contour" d="m711.06,568.8c5.3-4.48,8.26-6.38,14.72-8.26,10.07-2.91,16.51-2.9,23.66-.85,13.14,3.77,14.04,5.42,22.38,7.83,11.22,3.25,30.79,16.43,33.83,23.74,3.74,9.01,4.43,39.91-.64,44.68-13.06,12.29-26.79-9.52-31.97-12.77-6.96-4.36-35.15-2.52-46.9,2.27-9.47,3.86-14.75,4.7-22.24-.48-9.96-6.89-7.25-30.99-4.09-42.59,1.25-4.58,5.92-9.09,11.23-13.58Z" />
  <path class="contour" d="m721.27,586.93c2.43-1.8,2.81-4.09,7.66-6.51,5.37-2.69,8.77-4.53,15.32-4.34,9.86.29,11.37,1.16,17.45,2.68,8.18,2.04,31.14,13.12,34.89,16.63,4.62,4.32,3.72,19.84.89,20.65-6.26,1.79-20.32-7.19-24.51-8.94-5.63-2.35-21.6-5.32-28.21-3.7-5.33,1.3-10.98,2.3-18.38,1.91-8.98-.46-7.15-3.57-9.57-7.4-1.1-1.74,2.03-9.18,4.46-10.98Z" />
  <path class="contour" d="m669.95,576.97c7.91-18.13,10.73-27.54,20.17-31.91,14.69-6.82,25.93-10.93,35.74-9.19,18.04,3.2,30.42,9.42,41.87,11.49,15.4,2.78,41.55,22.83,45.96,33.45,6.89,16.6,6.66,61.84-1.22,70.55-20.32,22.44-36.51-9.47-43.35-13.54-9.2-5.47-36.62-1.09-56.79,21.89-10.69,12.18-22.35,22.5-32.17,15.83-13.07-8.88-9.45-27.06-8.17-50.3.44-7.97-6.71-37.56-2.04-48.26Z" />
  <path class="contour" d="m1019.23,913.22c-2.38,20.77-12.6,31.32-29.28,26.21-14.45-4.42-13.39-11.41-18.72-28.26-4.78-15.09-9.63-22.59-12.57-25.87-.9-1.01-12.6-8.66-12.6-8.66-22.5-7.69-33.05-7.35-36.45-22.33s8.85-20.38,18.81-29.59c1.66-1.53,13.71-9.72,15.23-11.26,3.57-3.62,10.62-8.48,12.6-13.62,14.3-37.11,26.53-57.21,42.03-53.78,28.43,6.29,14.82,26,14.82,58.09,0,17.46-14.2,57.5-12.16,69.56,2.16,12.83,20.34,21.62,18.29,39.49Z" />
  <path class="contour" d="m1038.29,928.2c3.75,24.22-23.04,40.48-49.74,27.72-23.11-11.04-25.49-12.06-38.09-29.09-11.55-15.61-13.96-15.93-19.06-19.74-1.57-1.17-11.94-15.64-17.7-14.98-34.38,3.98-45.62,5.45-68.43-18.77-12.97-13.77-17.31-39.29,0-50,2.88-1.78,44.75-8.89,47.83-9.77,12.38-3.51,25.34-2.87,41.68-18.89,35.56-34.87,45.05-71.82,69.68-60.19,30.49,14.4,21.92,21.56,21.92,58.89,0,20.31-18.75,50.59-15.21,64.63,3.76,14.92,23.6,47.42,27.12,70.18Z" />
  </svg>