<?xml version="1.0" encoding="utf-8" ?>
<svg baseProfile="tiny" height="100%" version="1.2" width="100%" xmlns="http://www.w3.org/2000/svg" xmlns:ev="http://www.w3.org/2001/xml-events" xmlns:xlink="http://www.w3.org/1999/xlink"><defs /><polyline fill="none" points="10.0,0.0 9.9799,0.6342 9.9195,1.2659 9.8193,1.8925 9.6795,2.5115 9.5007,3.1203 9.2837,3.7166 9.0293,4.2979 8.7385,4.862 8.4125,5.4064 8.0527,5.9291 7.6604,6.4279 7.2373,6.9008 6.7851,7.3459 6.3055,7.7615 5.8006,8.1458 5.2723,8.4973 4.7227,8.8145 4.1542,9.0963 3.5689,9.3415 2.9692,9.549 2.3576,9.7181 1.7365,9.8481 1.1084,9.9384 0.4758,9.9887 -0.1587,9.9987 -0.7925,9.9685 -1.4231,9.8982 -2.0481,9.788 -2.6647,9.6384 -3.2707,9.45 -3.8635,9.2235 -4.4407,8.9599 -5.0,8.6603 -5.5392,8.3257 -6.0561,7.9576 -6.5486,7.5575 -7.0147,7.1269 -7.4526,6.6677 -7.8605,6.1816 -8.2368,5.6706 -8.5798,5.1368 -8.8884,4.5823 -9.1611,4.0093 -9.3969,3.4202 -9.5949,2.8173 -9.7543,2.2031 -9.8744,1.58 -9.9547,0.9506 -9.995,0.3173 -9.995,-0.3173 -9.9547,-0.9506 -9.8744,-1.58 -9.7543,-2.2031 -9.5949,-2.8173 -9.3969,-3.4202 -9.1611,-4.0093 -8.8884,-4.5823 -8.5798,-5.1368 -8.2368,-5.6706 -7.8605,-6.1816 -7.4526,-6.6677 -7.0147,-7.1269 -6.5486,-7.5575 -6.0561,-7.9576 -5.5392,-8.3257 -5.0,-8.6603 -4.4407,-8.9599 -3.8635,-9.2235 -3.2707,-9.45 -2.6647,-9.6384 -2.0481,-9.788 -1.4231,-9.8982 -0.7925,-9.9685 -0.1587,-9.9987 0.4758,-9.9887 1.1084,-9.9384 1.7365,-9.8481 2.3576,-9.7181 2.9692,-9.549 3.5689,-9.3415 4.1542,-9.0963 4.7227,-8.8145 5.2723,-8.4973 5.8006,-8.1458 6.3055,-7.7615 6.7851,-7.3459 7.2373,-6.9008 7.6604,-6.4279 8.0527,-5.9291 8.4125,-5.4064 8.7385,-4.862 9.0293,-4.2979 9.2837,-3.7166 9.5007,-3.1203 9.6795,-2.5115 9.8193,-1.8925 9.9195,-1.2659 9.9799,-0.6342 10.0,-0.0 10.0,0.0" stroke="black" stroke-width="0.2" /><polyline fill="none" points="20.0,0.0 19.9597,1.2685 19.8391,2.5318 19.6386,3.785 19.359,5.023 19.0014,6.2407 18.5674,7.4332 18.0585,8.5959 17.477,9.7239 16.8251,10.8128 16.1054,11.8582 15.3209,12.8558 14.4747,13.8016 13.5702,14.6918 12.6111,15.5229 11.6011,16.2915 10.5445,16.9945 9.4454,17.6291 8.3083,18.1926 7.1377,18.683 5.9384,19.098 4.7152,19.4362 3.473,19.6962 2.2168,19.8768 0.9516,19.9773 -0.3173,19.9975 -1.585,19.9371 -2.8463,19.7964 -4.0961,19.576 -5.3295,19.2768 -6.5414,18.9 -7.7269,18.4471 -8.8813,17.9199 -10.0,17.3205 -11.0784,16.6514 -12.1122,15.9152 -13.0972,15.115 -14.0295,14.2539 -14.9053,13.3354 -15.7211,12.3632 -16.4735,11.3412 -17.1597,10.2735 -17.7767,9.1645 -18.3222,8.0186 -18.7939,6.8404 -19.1899,5.6347 -19.5086,4.4062 -19.7488,3.16 -19.9094,1.9011 -19.9899,0.6346 -19.9899,-0.6346 -19.9094,-1.9011 -19.7488,-3.16 -19.5086,-4.4062 -19.1899,-5.6347 -18.7939,-6.8404 -18.3222,-8.0186 -17.7767,-9.1645 -17.1597,-10.2735 -16.4735,-11.3412 -15.7211,-12.3632 -14.9053,-13.3354 -14.0295,-14.2539 -13.0972,-15.115 -12.1122,-15.9152 -11.0784,-16.6514 -10.0,-17.3205 -8.8813,-17.9199 -7.7269,-18.4471 -6.5414,-18.9 -5.3295,-19.2768 -4.0961,-19.576 -2.8463,-19.7964 -1.585,-19.9371 -0.3173,-19.9975 0.9516,-19.9773 2.2168,-19.8768 3.473,-19.6962 4.7152,-19.4362 5.9384,-19.098 7.1377,-18.683 8.3083,-18.1926 9.4454,-17.6291 10.5445,-16.9945 11.6011,-16.2915 12.6111,-15.5229 13.5702,-14.6918 14.4747,-13.8016 15.3209,-12.8558 16.1054,-11.8582 16.8251,-10.8128 17.477,-9.7239 18.0585,-8.5959 18.5674,-7.4332 19.0014,-6.2407 19.359,-5.023 19.6386,-3.785 19.8391,-2.5318 19.9597,-1.2685 20.0,-0.0 20.0,0.0" stroke="black" stroke-width="0.2" /><polyline fill="none" points="30.0,0.0 29.9396,1.9027 29.7586,3.7978 29.4579,5.6775 29.0385,7.5344 28.5021,9.361 27.851,11.1499 27.0878,12.8938 26.2155,14.5859 25.2376,16.2192 24.1581,17.7872 22.9813,19.2836 21.712,20.7024 20.3553,22.0378 18.9166,23.2844 17.4017,24.4373 15.8168,25.4918 14.1681,26.4436 12.4625,27.289 10.7066,28.0244 8.9076,28.6471 7.0728,29.1543 5.2094,29.5442 3.3251,29.8152 1.4275,29.966 -0.476,29.9962 -2.3775,29.9056 -4.2694,29.6946 -6.1442,29.3641 -7.9942,28.9153 -9.812,28.35 -11.5904,27.6706 -13.322,26.8798 -15.0,25.9808 -16.6176,24.9771 -18.1683,23.8729 -19.6458,22.6725 -21.0442,21.3808 -22.3579,20.0031 -23.5816,18.5448 -24.7103,17.0118 -25.7395,15.4103 -26.6651,13.7468 -27.4833,12.0279 -28.1908,10.2606 -28.7848,8.452 -29.2629,6.6093 -29.6232,4.74 -29.8642,2.8517 -29.9849,0.9518 -29.9849,-0.9518 -29.8642,-2.8517 -29.6232,-4.74 -29.2629,-6.6093 -28.7848,-8.452 -28.1908,-10.2606 -27.4833,-12.0279 -26.6651,-13.7468 -25.7395,-15.4103 -24.7103,-17.0118 -23.5816,-18.5448 -22.3579,-20.0031 -21.0442,-21.3808 -19.6458,-22.6725 -18.1683,-23.8729 -16.6176,-24.9771 -15.0,-25.9808 -13.322,-26.8798 -11.5904,-27.6706 -9.812,-28.35 -7.9942,-28.9153 -6.1442,-29.3641 -4.2694,-29.6946 -2.3775,-29.9056 -0.476,-29.9962 1.4275,-29.966 3.3251,-29.8152 5.2094,-29.5442 7.0728,-29.1543 8.9076,-28.6471 10.7066,-28.0244 12.4625,-27.289 14.1681,-26.4436 15.8168,-25.4918 17.4017,-24.4373 18.9166,-23.2844 20.3553,-22.0378 21.712,-20.7024 22.9813,-19.2836 24.1581,-17.7872 25.2376,-16.2192 26.2155,-14.5859 27.0878,-12.8938 27.851,-11.1499 28.5021,-9.361 29.0385,-7.5344 29.4579,-5.6775 29.7586,-3.7978 29.9396,-1.9027 30.0,-0.0 30.0,0.0" stroke="black" stroke-width="0.2" /><polyline fill="none" points="40.0,0.0 39.9195,2.537 39.6782,5.0637 39.2771,7.57 38.7179,10.0459 38.0028,12.4813 37.1347,14.8665 36.1171,17.1918 34.954,19.4479 33.6501,21.6256 32.2108,23.7163 30.6418,25.7115 28.9494,27.6032 27.1404,29.3837 25.2221,31.0459 23.2023,32.583 21.089,33.989 18.8908,35.2581 16.6166,36.3853 14.2754,37.3659 11.8768,38.1961 9.4304,38.8725 6.9459,39.3923 4.4335,39.7535 1.9033,39.9547 -0.6346,39.995 -3.17,39.8742 -5.6926,39.5929 -8.1923,39.1521 -10.659,38.5537 -13.0827,37.8 -15.4538,36.8942 -17.7627,35.8398 -20.0,34.641 -22.1568,33.3028 -24.2244,31.8305 -26.1944,30.23 -28.059,28.5078 -29.8106,26.6708 -31.4421,24.7264 -32.9471,22.6824 -34.3193,20.5471 -35.5534,18.3291 -36.6443,16.0372 -37.5877,13.6808 -38.3797,11.2693 -39.0172,8.8124 -39.4976,6.3201 -39.8189,3.8022 -39.9799,1.2691 -39.9799,-1.2691 -39.8189,-3.8022 -39.4976,-6.3201 -39.0172,-8.8124 -38.3797,-11.2693 -37.5877,-13.6808 -36.6443,-16.0372 -35.5534,-18.3291 -34.3193,-20.5471 -32.9471,-22.6824 -31.4421,-24.7264 -29.8106,-26.6708 -28.059,-28.5078 -26.1944,-30.23 -24.2244,-31.8305 -22.1568,-33.3028 -20.0,-34.641 -17.7627,-35.8398 -15.4538,-36.8942 -13.0827,-37.8 -10.659,-38.5537 -8.1923,-39.1521 -5.6926,-39.5929 -3.17,-39.8742 -0.6346,-39.995 1.9033,-39.9547 4.4335,-39.7535 6.9459,-39.3923 9.4304,-38.8725 11.8768,-38.1961 14.2754,-37.3659 16.6166,-36.3853 18.8908,-35.2581 21.089,-33.989 23.2023,-32.583 25.2221,-31.0459 27.1404,-29.3837 28.9494,-27.6032 30.6418,-25.7115 32.2108,-23.7163 33.6501,-21.6256 34.954,-19.4479 36.1171,-17.1918 37.1347,-14.8665 38.0028,-12.4813 38.7179,-10.0459 39.2771,-7.57 39.6782,-5.0637 39.9195,-2.537 40.0,-0.0 40.0,0.0" stroke="black" stroke-width="0.2" /><polyline fill="none" points="50.0,0.0 49.8993,3.1712 49.5977,6.3296 49.0964,9.4626 48.3974,12.5574 47.5036,15.6017 46.4184,18.5831 45.1463,21.4897 43.6925,24.3098 42.0627,27.032 40.2635,29.6454 38.3022,32.1394 36.1867,34.504 33.9255,36.7296 31.5276,38.8073 29.0028,40.7288 26.3613,42.4863 23.6136,44.0727 20.7708,45.4816 17.8443,46.7074 14.846,47.7451 11.7879,48.5906 8.6824,49.2404 5.5419,49.6919 2.3791,49.9434 -0.7933,49.9937 -3.9625,49.8427 -7.1157,49.4911 -10.2403,48.9401 -13.3237,48.1921 -16.3534,47.25 -19.3173,46.1177 -22.2033,44.7997 -25.0,43.3013 -27.696,41.6285 -30.2805,39.7881 -32.743,37.7875 -35.0737,35.6347 -37.2632,33.3385 -39.3027,30.9079 -41.1838,28.353 -42.8992,25.6839 -44.4418,22.9113 -45.8054,20.0465 -46.9846,17.101 -47.9746,14.0866 -48.7715,11.0155 -49.3719,7.9001 -49.7736,4.7528 -49.9748,1.5864 -49.9748,-1.5864 -49.7736,-4.7528 -49.3719,-7.9001 -48.7715,-11.0155 -47.9746,-14.0866 -46.9846,-17.101 -45.8054,-20.0465 -44.4418,-22.9113 -42.8992,-25.6839 -41.1838,-28.353 -39.3027,-30.9079 -37.2632,-33.3385 -35.0737,-35.6347 -32.743,-37.7875 -30.2805,-39.7881 -27.696,-41.6285 -25.0,-43.3013 -22.2033,-44.7997 -19.3173,-46.1177 -16.3534,-47.25 -13.3237,-48.1921 -10.2403,-48.9401 -7.1157,-49.4911 -3.9625,-49.8427 -0.7933,-49.9937 2.3791,-49.9434 5.5419,-49.6919 8.6824,-49.2404 11.7879,-48.5906 14.846,-47.7451 17.8443,-46.7074 20.7708,-45.4816 23.6136,-44.0727 26.3613,-42.4863 29.0028,-40.7288 31.5276,-38.8073 33.9255,-36.7296 36.1867,-34.504 38.3022,-32.1394 40.2635,-29.6454 42.0627,-27.032 43.6925,-24.3098 45.1463,-21.4897 46.4184,-18.5831 47.5036,-15.6017 48.3974,-12.5574 49.0964,-9.4626 49.5977,-6.3296 49.8993,-3.1712 50.0,-0.0 50.0,0.0" stroke="black" stroke-width="0.2" /></svg>